<?xml version="1.0" encoding="UTF-8"?>
<svg width="2630px" height="2579px" viewBox="0 0 2630 2579" version="1.1" xmlns="http://www.w3.org/2000/svg" xmlns:xlink="http://www.w3.org/1999/xlink">
    <title>pattern_05</title>
    <g id="pattern_05" stroke="none" stroke-width="1" fill="none" fill-rule="evenodd">
        <g id="Path-10_1_looper" transform="translate(-170.000000, -386.000000)" stroke="#37352E">
            <path d="M802.40395,791.344669 C1294.48118,493.928795 1675.20453,804.67517 2051.73902,915.527957 C2428.27351,1026.38074 2970.20138,872.464648 3047.9755,1243.13696 C3125.74961,1613.80927 2433.49567,2387.10918 1953.25577,2321.6608 C1473.01586,2256.21242 1024.18941,2217.15954 908.656967,2532.1133 C793.124522,2847.06706 -82.8543139,2442.54022 296.737834,1979.76094 C676.329982,1516.98167 310.326722,1088.76054 802.40395,791.344669 Z" id="Path-10_1_150" transform="translate(1628.000000, 1654.886938) rotate(72.835872) translate(-1628.000000, -1654.886938) "></path>
            <path d="M802.561869,792.217985 C1293.94895,495.102706 1674.13832,805.535012 2050.14471,916.275762 C2426.15111,1027.01651 2967.31891,873.255977 3044.98395,1243.55365 C3122.64898,1613.85133 2431.36594,2386.36968 1951.79959,2320.98744 C1472.23323,2255.60521 1024.03627,2216.5918 908.665863,2531.22724 C793.295456,2845.86268 -81.4547987,2441.74469 297.604962,1979.43314 C676.664723,1517.12159 311.174791,1089.33326 802.561869,792.217985 Z" id="Path-10_1_149" transform="translate(1627.000000, 1654.887482) rotate(73.382266) translate(-1627.000000, -1654.887482) "></path>
            <path d="M802.719788,793.091301 C1293.41672,496.276616 1673.07212,806.394855 2048.55041,917.023568 C2424.0287,1027.65228 2964.43644,874.047306 3041.9924,1243.97035 C3119.54835,1613.89339 2429.23622,2385.63018 1950.34341,2320.31409 C1471.4506,2254.998 1023.88313,2216.02407 908.674759,2530.34119 C793.466389,2844.65831 -80.0552835,2440.94917 298.47209,1979.10534 C676.999463,1517.26152 312.02286,1089.90599 802.719788,793.091301 Z" id="Path-10_1_148" transform="translate(1626.000000, 1654.888028) rotate(73.907441) translate(-1626.000000, -1654.888028) "></path>
            <path d="M802.877706,793.964617 C1292.88448,497.450525 1672.00591,807.254699 2046.95611,917.771374 C2421.9063,1028.28805 2961.55397,874.838635 3039.00085,1244.38705 C3116.44772,1613.93546 2427.10649,2384.89068 1948.88723,2319.64074 C1470.66797,2254.3908 1023.72999,2215.45633 908.683656,2529.45514 C793.637322,2843.45394 -78.6557684,2440.15364 299.339218,1978.77754 C677.334204,1517.40144 312.870929,1090.47871 802.877706,793.964617 Z" id="Path-10_1_147" transform="translate(1625.000000, 1654.888575) rotate(74.411064) translate(-1625.000000, -1654.888575) "></path>
            <path d="M803.035625,794.837933 C1292.35225,498.624435 1670.93971,808.114542 2045.3618,918.51918 C2419.7839,1028.92382 2958.6715,875.629965 3036.0093,1244.80374 C3113.34709,1613.97752 2424.97676,2384.15118 1947.43105,2318.96739 C1469.88534,2253.7836 1023.57685,2214.8886 908.692552,2528.56909 C793.808256,2842.24957 -77.2562532,2439.35812 300.206346,1978.44975 C677.668944,1517.54137 313.718998,1091.05143 803.035625,794.837933 Z" id="Path-10_1_146" transform="translate(1624.000000, 1654.889124) rotate(74.892818) translate(-1624.000000, -1654.889124) "></path>
            <path d="M803.193544,795.71125 C1291.82002,499.798344 1669.8735,808.974385 2043.7675,919.266987 C2417.66149,1029.55959 2955.78903,876.421295 3033.01775,1245.22044 C3110.24646,1614.01959 2422.84703,2383.41169 1945.97487,2318.29405 C1469.10271,2253.1764 1023.42371,2214.32088 908.701448,2527.68304 C793.979189,2841.04521 -75.856738,2438.56261 301.073473,1978.12195 C678.003685,1517.6813 314.567067,1091.62416 803.193544,795.71125 Z" id="Path-10_1_145" transform="translate(1623.000000, 1654.889675) rotate(75.352398) translate(-1623.000000, -1654.889675) "></path>
            <path d="M803.351462,796.584566 C1291.28779,500.972253 1668.8073,809.834229 2042.17319,920.014794 C2415.53909,1030.19536 2952.90656,877.212625 3030.02619,1245.63714 C3107.14583,1614.06166 2420.71731,2382.6722 1944.51869,2317.6207 C1468.32008,2252.56921 1023.27057,2213.75315 908.710344,2526.797 C794.150122,2839.84085 -74.4572229,2437.7671 301.940601,1977.79416 C678.338425,1517.82123 315.415136,1092.19688 803.351462,796.584566 Z" id="Path-10_1_144" transform="translate(1622.000000, 1654.890227) rotate(75.789513) translate(-1622.000000, -1654.890227) "></path>
            <path d="M803.509381,797.457883 C1290.75556,502.146161 1667.74109,810.694073 2040.57889,920.762602 C2413.41669,1030.83113 2950.02409,878.003956 3027.03464,1246.05384 C3104.0452,1614.10373 2418.58758,2381.93271 1943.06251,2316.94736 C1467.53745,2251.96201 1023.11743,2213.18543 908.719241,2525.91096 C794.321056,2838.63649 -73.0577077,2436.97158 302.807729,1977.46637 C678.673166,1517.96116 316.263205,1092.76961 803.509381,797.457883 Z" id="Path-10_1_143" transform="translate(1621.000000, 1654.890780) rotate(76.203889) translate(-1621.000000, -1654.890780) "></path>
            <path d="M803.6673,798.3312 C1290.22333,503.32007 1666.67488,811.553918 2038.98458,921.51041 C2411.29428,1031.4669 2947.14162,878.795287 3024.04309,1246.47054 C3100.94457,1614.1458 2416.45785,2381.19323 1941.60633,2316.27403 C1466.75482,2251.35482 1022.96428,2212.61771 908.728137,2525.02492 C794.491989,2837.43213 -71.6581925,2436.17608 303.674857,1977.13858 C679.007906,1518.10109 317.111274,1093.34233 803.6673,798.3312 Z" id="Path-10_1_142" transform="translate(1620.000000, 1654.891335) rotate(76.595263) translate(-1620.000000, -1654.891335) "></path>
            <path d="M803.825219,799.204518 C1289.69109,504.493978 1665.60868,812.413762 2037.39028,922.258218 C2409.17188,1032.10267 2944.25915,879.586618 3021.05154,1246.88724 C3097.84394,1614.18787 2414.32812,2380.45375 1940.15015,2315.60069 C1465.97219,2250.74763 1022.81114,2212.04999 908.737033,2524.13889 C794.662922,2836.22778 -70.2586774,2435.38057 304.541985,1976.8108 C679.342647,1518.24103 317.959344,1093.91506 803.825219,799.204518 Z" id="Path-10_1_141" transform="translate(1619.000000, 1654.891892) rotate(76.963387) translate(-1619.000000, -1654.891892) "></path>
            <path d="M803.983137,800.077835 C1289.15886,505.667886 1664.54247,813.273607 2035.79598,923.006027 C2407.04948,1032.73845 2941.37668,880.37795 3018.05999,1247.30395 C3094.7433,1614.22995 2412.1984,2379.71427 1938.69398,2314.92736 C1465.18955,2250.14045 1022.658,2211.48227 908.745929,2523.25286 C794.833856,2835.02344 -68.8591622,2434.58507 305.409113,1976.48302 C679.677388,1518.38096 318.807413,1094.48778 803.983137,800.077835 Z" id="Path-10_1_140" transform="translate(1618.000000, 1654.892450) rotate(77.308030) translate(-1618.000000, -1654.892450) "></path>
            <path d="M804.141056,800.951153 C1288.62663,506.841793 1663.47627,814.133452 2034.20167,923.753836 C2404.92707,1033.37422 2938.49421,881.169282 3015.06844,1247.72065 C3091.64267,1614.27202 2410.06867,2378.97479 1937.2378,2314.25403 C1464.40692,2249.53327 1022.50486,2210.91456 908.754826,2522.36683 C795.004789,2833.8191 -67.459647,2433.78957 306.276241,1976.15523 C680.012128,1518.5209 319.655482,1095.06051 804.141056,800.951153 Z" id="Path-10_1_139" transform="translate(1617.000000, 1654.893010) rotate(77.628974) translate(-1617.000000, -1654.893010) "></path>
            <path d="M804.298975,801.824471 C1288.0944,508.0157 1662.41006,814.993297 2032.60737,924.501645 C2402.80467,1034.00999 2935.61174,881.960614 3012.07689,1248.13736 C3088.54204,1614.3141 2407.93894,2378.23532 1935.78162,2313.5807 C1463.62429,2248.92609 1022.35172,2210.34685 908.763722,2521.4808 C795.175723,2832.61476 -66.0601319,2432.99407 307.143368,1975.82746 C680.346869,1518.66084 320.503551,1095.63324 804.298975,801.824471 Z" id="Path-10_1_138" transform="translate(1616.000000, 1654.893571) rotate(77.926015) translate(-1616.000000, -1654.893571) "></path>
            <path d="M804.456894,802.697789 C1287.56217,509.189607 1661.34386,815.853142 2031.01306,925.249455 C2400.68227,1034.64577 2932.72927,882.751947 3009.08534,1248.55406 C3085.44141,1614.35618 2405.80921,2377.49584 1934.32544,2312.90738 C1462.84166,2248.31891 1022.19858,2209.77914 908.772618,2520.59478 C795.346656,2831.41042 -64.6606167,2432.19858 308.010496,1975.49968 C680.681609,1518.80078 321.35162,1096.20597 804.456894,802.697789 Z" id="Path-10_1_137" transform="translate(1615.000000, 1654.894134) rotate(78.198967) translate(-1615.000000, -1654.894134) "></path>
            <path d="M804.614812,803.571107 C1287.02994,510.363514 1660.27765,816.712988 2029.41876,925.997266 C2398.55986,1035.28154 2929.8468,883.54328 3006.09379,1248.97077 C3082.34078,1614.39826 2403.67949,2376.75638 1932.86926,2312.23405 C1462.05903,2247.71173 1022.04544,2209.21143 908.781515,2519.70876 C795.517589,2830.20609 -63.2611015,2431.40309 308.877624,1975.1719 C681.01635,1518.94072 322.199689,1096.7787 804.614812,803.571107 Z" id="Path-10_1_136" transform="translate(1614.000000, 1654.894699) rotate(78.447657) translate(-1614.000000, -1654.894699) "></path>
            <path d="M804.772731,804.444426 C1286.4977,511.53742 1659.21145,817.572834 2027.82445,926.745076 C2396.43746,1035.91732 2926.96433,884.334613 3003.10224,1249.38748 C3079.24015,1614.44034 2401.54976,2376.01691 1931.41308,2311.56074 C1461.2764,2247.10456 1021.8923,2208.64373 908.790411,2518.82275 C795.688523,2829.00176 -61.8615864,2430.6076 309.744752,1974.84413 C681.35109,1519.08066 323.047758,1097.35143 804.772731,804.444426 Z" id="Path-10_1_135" transform="translate(1613.000000, 1654.895265) rotate(78.671928) translate(-1613.000000, -1654.895265) "></path>
            <path d="M804.93065,805.317744 C1285.96547,512.711327 1658.14524,818.43268 2026.23015,927.492888 C2394.31506,1036.5531 2924.08186,885.125947 3000.11069,1249.80419 C3076.13952,1614.48242 2399.42003,2375.27745 1929.9569,2310.88742 C1460.49377,2246.49739 1021.73916,2208.07603 908.799307,2517.93673 C795.859456,2827.79743 -60.4620712,2429.81212 310.61188,1974.51636 C681.685831,1519.2206 323.895827,1097.92416 804.93065,805.317744 Z" id="Path-10_1_134" transform="translate(1612.000000, 1654.895833) rotate(78.871638) translate(-1612.000000, -1654.895833) "></path>
            <path d="M805.088568,806.191063 C1285.43324,513.885232 1657.07904,819.292526 2024.63584,928.240699 C2392.19265,1037.18887 2921.19939,885.917281 2997.11914,1250.2209 C3073.03889,1614.52451 2397.2903,2374.53799 1928.50072,2310.21411 C1459.71114,2245.89022 1021.58602,2207.50833 908.808203,2517.05072 C796.030389,2826.59311 -59.062556,2429.01664 311.479008,1974.18859 C682.020572,1519.36055 324.743897,1098.49689 805.088568,806.191063 Z" id="Path-10_1_133" transform="translate(1611.000000, 1654.896403) rotate(79.046661) translate(-1611.000000, -1654.896403) "></path>
            <path d="M805.246487,807.064382 C1284.90101,515.059138 1656.01283,820.152372 2023.04154,928.988511 C2390.07025,1037.82465 2918.31692,886.708615 2994.12759,1250.63761 C3069.93826,1614.5666 2395.16058,2373.79853 1927.04454,2309.5408 C1458.92851,2245.28306 1021.43288,2206.94064 908.8171,2516.16472 C796.201323,2825.38879 -57.6630409,2428.22116 312.346136,1973.86083 C682.355312,1519.5005 325.591966,1099.06963 805.246487,807.064382 Z" id="Path-10_1_132" transform="translate(1610.000000, 1654.896974) rotate(79.196887) translate(-1610.000000, -1654.896974) "></path>
            <path d="M805.404406,807.937702 C1284.36878,516.233043 1654.94662,821.012219 2021.44724,929.736324 C2387.94785,1038.46043 2915.43445,887.49995 2991.13604,1251.05432 C3066.83763,1614.60868 2393.03085,2373.05908 1925.58836,2308.86749 C1458.14588,2244.6759 1021.27974,2206.37294 908.825996,2515.27871 C796.372256,2824.18448 -56.2635257,2427.42568 313.213263,1973.53306 C682.690053,1519.64044 326.440035,1099.64236 805.404406,807.937702 Z" id="Path-10_1_131" transform="translate(1609.000000, 1654.897547) rotate(79.322220) translate(-1609.000000, -1654.897547) "></path>
            <path d="M805.562325,808.811021 C1283.83655,517.406948 1653.88042,821.872066 2019.85293,930.484136 C2385.82544,1039.09621 2912.55198,888.291285 2988.14449,1251.47103 C3063.737,1614.65077 2390.90112,2372.31963 1924.13218,2308.19418 C1457.36325,2244.06874 1021.12659,2205.80525 908.834892,2514.39271 C796.543189,2822.98017 -54.8640105,2426.63021 314.080391,1973.2053 C683.024793,1519.78039 327.288104,1100.21509 805.562325,808.811021 Z" id="Path-10_1_130" transform="translate(1608.000000, 1654.898121) rotate(79.422581) translate(-1608.000000, -1654.898121) "></path>
            <path d="M805.720243,809.684341 C1283.30431,518.580853 1652.81421,822.731913 2018.25863,931.23195 C2383.70304,1039.73199 2909.66951,889.082621 2985.15294,1251.88774 C3060.63637,1614.69287 2388.77139,2371.58018 1922.676,2307.52088 C1456.58061,2243.46158 1020.97345,2205.23757 908.843788,2513.50671 C796.714123,2821.77586 -53.4644954,2425.83474 314.947519,1972.87754 C683.359534,1519.92034 328.136173,1100.78783 805.720243,809.684341 Z" id="Path-10_1_129" transform="translate(1607.000000, 1654.898698) rotate(79.497908) translate(-1607.000000, -1654.898698) "></path>
            <path d="M805.878162,810.557661 C1282.77208,519.754757 1651.74801,823.591761 2016.66432,931.979763 C2381.58064,1040.36777 2906.78704,889.873956 2982.16139,1252.30446 C3057.53574,1614.73496 2386.64167,2370.84073 1921.21983,2306.84758 C1455.79798,2242.85443 1020.82031,2204.66988 908.852685,2512.62072 C796.885056,2820.57156 -52.0649802,2425.03927 315.814647,1972.54978 C683.694274,1520.0603 328.984242,1101.36056 805.878162,810.557661 Z" id="Path-10_1_128" transform="translate(1606.000000, 1654.899275) rotate(79.548153) translate(-1606.000000, -1654.899275) "></path>
            <path d="M806.036081,811.430981 C1282.23985,520.928661 1650.6818,824.451608 2015.07002,932.727577 C2379.45823,1041.00355 2903.90457,890.665292 2979.16984,1252.72117 C3054.43511,1614.77705 2384.51194,2370.10129 1919.76365,2306.17428 C1455.01535,2242.24728 1020.66717,2204.1022 908.861581,2511.73473 C797.055989,2819.36726 -50.665465,2424.24381 316.681775,1972.22203 C684.029015,1520.20025 329.832311,1101.9333 806.036081,811.430981 Z" id="Path-10_1_127" transform="translate(1605.000000, 1654.899855) rotate(79.573283) translate(-1605.000000, -1654.899855) "></path>
            <path d="M806.194,812.304301 C1281.70762,522.102565 1649.6156,825.311456 2013.47571,933.475392 C2377.33583,1041.63933 2901.0221,891.456629 2976.17829,1253.13789 C3051.33448,1614.81915 2382.38221,2369.36185 1918.30747,2305.50099 C1454.23272,2241.64013 1020.51403,2203.53452 908.870477,2510.84874 C797.226923,2818.16296 -49.2659499,2423.44835 317.548903,1971.89428 C684.363755,1520.3402 330.68038,1102.50604 806.194,812.304301 Z" id="Path-10_1_126" transform="translate(1604.000000, 1654.900436) rotate(79.573283) translate(-1604.000000, -1654.900436) "></path>
            <path d="M806.351918,813.177622 C1281.17539,523.276469 1648.54939,826.171304 2011.88141,934.223207 C2375.21343,1042.27511 2898.13963,892.247966 2973.18674,1253.55461 C3048.23385,1614.86125 2380.25248,2368.62242 1916.85129,2304.8277 C1453.45009,2241.03298 1020.36089,2202.96684 908.879373,2509.96276 C797.397856,2816.95867 -47.8664347,2422.65289 318.416031,1971.56653 C684.698496,1520.48016 331.528449,1103.07878 806.351918,813.177622 Z" id="Path-10_1_125" transform="translate(1603.000000, 1654.901019) rotate(79.548153) translate(-1603.000000, -1654.901019) "></path>
            <path d="M806.509837,814.050943 C1280.64316,524.450372 1647.48319,827.031153 2010.28711,934.971022 C2373.09103,1042.91089 2895.25715,893.039303 2970.19518,1253.97133 C3045.13322,1614.90335 2378.12276,2367.88298 1915.39511,2304.15441 C1452.66746,2240.42584 1020.20775,2202.39917 908.88827,2509.07678 C797.568789,2815.75438 -46.4669195,2421.85744 319.283159,1971.23878 C685.033237,1520.62012 332.376519,1103.65151 806.509837,814.050943 Z" id="Path-10_1_124" transform="translate(1602.000000, 1654.901603) rotate(79.497908) translate(-1602.000000, -1654.901603) "></path>
            <path d="M806.667756,814.924264 C1280.11092,525.624275 1646.41698,827.891001 2008.6928,935.718838 C2370.96862,1043.54667 2892.37468,893.83064 2967.20363,1254.38804 C3042.03258,1614.94545 2375.99303,2367.14355 1913.93893,2303.48112 C1451.88483,2239.8187 1020.05461,2201.8315 908.897166,2508.1908 C797.739723,2814.5501 -45.0674044,2421.06198 320.150286,1970.91103 C685.367977,1520.76008 333.224588,1104.22425 806.667756,814.924264 Z" id="Path-10_1_123" transform="translate(1601.000000, 1654.902190) rotate(79.422581) translate(-1601.000000, -1654.902190) "></path>
            <path d="M806.825674,815.797585 C1279.57869,526.798177 1645.35077,828.75085 2007.0985,936.466654 C2368.84622,1044.18246 2889.49221,894.621978 2964.21208,1254.80476 C3038.93195,1614.98755 2373.8633,2366.40412 1912.48275,2302.80784 C1451.1022,2239.21156 1019.90147,2201.26383 908.906062,2507.30482 C797.910656,2813.34582 -43.6678892,2420.26654 321.017414,1970.58329 C685.702718,1520.90004 334.072657,1104.79699 806.825674,815.797585 Z" id="Path-10_1_122" transform="translate(1600.000000, 1654.902778) rotate(79.322220) translate(-1600.000000, -1654.902778) "></path>
            <path d="M806.983593,816.670906 C1279.04646,527.97208 1644.28457,829.610699 2005.50419,937.214471 C2366.72382,1044.81824 2886.60974,895.413317 2961.22053,1255.22149 C3035.83132,1615.02966 2371.73358,2365.6647 1911.02657,2302.13456 C1450.31957,2238.60443 1019.74833,2200.69616 908.914958,2506.41885 C798.081589,2812.14154 -42.268374,2419.47109 321.884542,1970.25555 C686.037458,1521.04 334.920726,1105.36973 806.983593,816.670906 Z" id="Path-10_1_121" transform="translate(1599.000000, 1654.903367) rotate(79.196887) translate(-1599.000000, -1654.903367) "></path>
            <path d="M807.141512,817.544228 C1278.51423,529.145982 1643.21836,830.470549 2003.90989,937.962288 C2364.60141,1045.45403 2883.72727,896.204655 2958.22898,1255.63821 C3032.73069,1615.07176 2369.60385,2364.92528 1909.57039,2301.46129 C1449.53694,2237.99729 1019.59519,2200.1285 908.923855,2505.53288 C798.252523,2810.93727 -40.8688589,2418.67565 322.75167,1969.92781 C686.372199,1521.17997 335.768795,1105.94247 807.141512,817.544228 Z" id="Path-10_1_120" transform="translate(1598.000000, 1654.903959) rotate(79.046661) translate(-1598.000000, -1654.903959) "></path>
            <path d="M807.299431,818.41755 C1277.982,530.319883 1642.15216,831.330398 2002.31558,938.710105 C2362.47901,1046.08981 2880.8448,896.995994 2955.23743,1256.05493 C3029.63006,1615.11387 2367.47412,2364.18586 1908.11421,2300.78801 C1448.7543,2237.39016 1019.44205,2199.56084 908.932751,2504.64692 C798.423456,2809.733 -39.4693437,2417.88021 323.618798,1969.60007 C686.706939,1521.31993 336.616864,1106.51522 807.299431,818.41755 Z" id="Path-10_1_119" transform="translate(1597.000000, 1654.904552) rotate(78.871638) translate(-1597.000000, -1654.904552) "></path>
            <path d="M807.457349,819.290872 C1277.44977,531.493785 1641.08595,832.190248 2000.72128,939.457923 C2360.35661,1046.7256 2877.96233,897.787333 2952.24588,1256.47166 C3026.52943,1615.15598 2365.34439,2363.44644 1906.65803,2300.11474 C1447.97167,2236.78304 1019.2889,2198.99318 908.941647,2503.76095 C798.594389,2808.52873 -38.0698285,2417.08477 324.485926,1969.27234 C687.04168,1521.4599 337.464933,1107.08796 807.457349,819.290872 Z" id="Path-10_1_118" transform="translate(1596.000000, 1654.905147) rotate(78.671928) translate(-1596.000000, -1654.905147) "></path>
            <path d="M807.615268,820.164195 C1276.91753,532.667686 1640.01975,833.050098 1999.12697,940.205742 C2358.2342,1047.36139 2875.07986,898.578673 2949.25433,1256.88838 C3023.4288,1615.19809 2363.21467,2362.70703 1905.20185,2299.44147 C1447.18904,2236.17591 1019.13576,2198.42552 908.950543,2502.875 C798.765323,2807.32447 -36.6703134,2416.28934 325.353054,1968.9446 C687.37642,1521.59987 338.313002,1107.6607 807.615268,820.164195 Z" id="Path-10_1_117" transform="translate(1595.000000, 1654.905744) rotate(78.447657) translate(-1595.000000, -1654.905744) "></path>
            <path d="M807.773187,821.037517 C1276.3853,533.841587 1638.95354,833.909949 1997.53267,940.953561 C2356.1118,1047.99717 2872.19739,899.370013 2946.26278,1257.30511 C3020.32817,1615.2402 2361.08494,2361.96762 1903.74567,2298.76821 C1446.40641,2235.56879 1018.98262,2197.85787 908.95944,2501.98904 C798.936256,2806.12021 -35.2707982,2415.49391 326.220181,1968.61687 C687.711161,1521.73984 339.161071,1108.23345 807.773187,821.037517 Z" id="Path-10_1_116" transform="translate(1594.000000, 1654.906342) rotate(78.198967) translate(-1594.000000, -1654.906342) "></path>
            <path d="M807.931105,821.91084 C1275.85307,535.015487 1637.88734,834.769799 1995.93837,941.70138 C2353.9894,1048.63296 2869.31492,900.161354 2943.27123,1257.72184 C3017.22754,1615.28232 2358.95521,2361.22822 1902.2895,2298.09495 C1445.62378,2234.96168 1018.82948,2197.29022 908.968336,2501.10309 C799.10719,2804.91596 -33.871283,2414.69848 327.087309,1968.28915 C688.045902,1521.87981 340.009141,1108.80619 807.931105,821.91084 Z" id="Path-10_1_115" transform="translate(1593.000000, 1654.906942) rotate(77.926015) translate(-1593.000000, -1654.906942) "></path>
            <path d="M808.089024,822.784163 C1275.32084,536.189387 1636.82113,835.62965 1994.34406,942.4492 C2351.86699,1049.26875 2866.43245,900.952694 2940.27968,1258.13856 C3014.12691,1615.32443 2356.82548,2360.48881 1900.83332,2297.42169 C1444.84115,2234.35456 1018.67634,2196.72257 908.977232,2500.21714 C799.278123,2803.71171 -32.4717679,2413.90306 327.954437,1967.96142 C688.380642,1522.01978 340.85721,1109.37894 808.089024,822.784163 Z" id="Path-10_1_114" transform="translate(1592.000000, 1654.907544) rotate(77.628974) translate(-1592.000000, -1654.907544) "></path>
            <path d="M808.246943,823.657486 C1274.78861,537.363287 1635.75493,836.489501 1992.74976,943.19702 C2349.74459,1049.90454 2863.54998,901.744036 2937.28813,1258.55529 C3011.02628,1615.36655 2354.69576,2359.74941 1899.37714,2296.74843 C1444.05852,2233.74745 1018.5232,2196.15493 908.986128,2499.3312 C799.449056,2802.50746 -31.0722527,2413.10764 328.821565,1967.6337 C688.715383,1522.15976 341.705279,1109.95169 808.246943,823.657486 Z" id="Path-10_1_113" transform="translate(1591.000000, 1654.908148) rotate(77.308030) translate(-1591.000000, -1654.908148) "></path>
            <path d="M808.404862,824.53081 C1274.25638,538.537187 1634.68872,837.349352 1991.15545,943.944841 C2347.62219,1050.54033 2860.66751,902.535377 2934.29658,1258.97202 C3007.92565,1615.40867 2352.56603,2359.01002 1897.92096,2296.07518 C1443.27589,2233.14034 1018.37006,2195.58729 908.995025,2498.44525 C799.61999,2801.30322 -29.6727375,2412.31222 329.688693,1967.30598 C689.050123,1522.29973 342.553348,1110.52443 808.404862,824.53081 Z" id="Path-10_1_112" transform="translate(1590.000000, 1654.908754) rotate(76.963387) translate(-1590.000000, -1654.908754) "></path>
            <path d="M808.56278,825.404133 C1273.72414,539.711086 1633.62251,838.209204 1989.56115,944.692662 C2345.49978,1051.17612 2857.78504,903.326719 2931.30503,1259.38876 C3004.82502,1615.45079 2350.4363,2358.27062 1896.46478,2295.40193 C1442.49326,2232.53323 1018.21692,2195.01965 909.003921,2497.55931 C799.790923,2800.09898 -28.2732224,2411.51681 330.555821,1966.97826 C689.384864,1522.43971 343.401417,1111.09718 808.56278,825.404133 Z" id="Path-10_1_111" transform="translate(1589.000000, 1654.909361) rotate(76.595263) translate(-1589.000000, -1654.909361) "></path>
            <path d="M808.720699,826.277457 C1273.19191,540.884985 1632.55631,839.069056 1987.96684,945.440483 C2343.37738,1051.81191 2854.90257,904.118061 2928.31348,1259.80549 C3001.72439,1615.49292 2348.30657,2357.53123 1895.0086,2294.72868 C1441.71063,2231.92613 1018.06378,2194.45201 909.012817,2496.67338 C799.961856,2798.89475 -26.8737072,2410.7214 331.422949,1966.65054 C689.719604,1522.57969 344.249486,1111.66993 808.720699,826.277457 Z" id="Path-10_1_110" transform="translate(1588.000000, 1654.909970) rotate(76.203889) translate(-1588.000000, -1654.909970) "></path>
            <path d="M808.878618,827.150781 C1272.65968,542.058884 1631.4901,839.928908 1986.37254,946.188305 C2341.25498,1052.4477 2852.0201,904.909404 2925.32193,1260.22222 C2998.62376,1615.53504 2346.17685,2356.79184 1893.55242,2294.05544 C1440.928,2231.31903 1017.91064,2193.88438 909.021714,2495.78745 C800.13279,2797.69052 -25.474192,2409.92599 332.290076,1966.32283 C690.054345,1522.71967 345.097555,1112.24268 808.878618,827.150781 Z" id="Path-10_1_109" transform="translate(1587.000000, 1654.910581) rotate(75.789513) translate(-1587.000000, -1654.910581) "></path>
            <path d="M809.036537,828.024106 C1272.12745,543.232782 1630.4239,840.78876 1984.77824,946.936128 C2339.13257,1053.0835 2849.13763,905.700747 2922.33038,1260.63896 C2995.52313,1615.57717 2344.04712,2356.05246 1892.09624,2293.38219 C1440.14536,2230.71193 1017.7575,2193.31675 909.03061,2494.90152 C800.303723,2796.48629 -24.0746769,2409.13059 333.157204,1965.99512 C690.389085,1522.85965 345.945624,1112.81543 809.036537,828.024106 Z" id="Path-10_1_108" transform="translate(1586.000000, 1654.911194) rotate(75.352398) translate(-1586.000000, -1654.911194) "></path>
            <path d="M809.194455,828.89743 C1271.59522,544.40668 1629.35769,841.648613 1983.18393,947.683951 C2337.01017,1053.71929 2846.25516,906.492091 2919.33883,1261.05569 C2992.4225,1615.6193 2341.91739,2355.31308 1890.64006,2292.70896 C1439.36273,2230.10484 1017.60436,2192.74912 909.039506,2494.0156 C800.474656,2795.28207 -22.6751617,2408.33519 334.024332,1965.66741 C690.723826,1522.99964 346.793693,1113.38818 809.194455,828.89743 Z" id="Path-10_1_107" transform="translate(1585.000000, 1654.911809) rotate(74.892818) translate(-1585.000000, -1654.911809) "></path>
            <path d="M809.352374,829.770755 C1271.06299,545.580578 1628.29149,842.508466 1981.58963,948.431774 C2334.88777,1054.35508 2843.37269,907.283434 2916.34728,1261.47243 C2989.32186,1615.66143 2339.78766,2354.5737 1889.18388,2292.03572 C1438.5801,2229.49774 1017.45121,2192.1815 909.048402,2493.12967 C800.64559,2794.07785 -21.2756465,2407.53979 334.89146,1965.33971 C691.058567,1523.13962 347.641763,1113.96093 809.352374,829.770755 Z" id="Path-10_1_106" transform="translate(1584.000000, 1654.912425) rotate(74.411064) translate(-1584.000000, -1654.912425) "></path>
            <path d="M809.510293,830.64408 C1270.53075,546.754475 1627.22528,843.368319 1979.99532,949.179598 C2332.76536,1054.99088 2840.49022,908.074779 2913.35573,1261.88917 C2986.22123,1615.70356 2337.65794,2353.83433 1887.7277,2291.36249 C1437.79747,2228.89066 1017.29807,2191.61388 909.057299,2492.24376 C800.816523,2792.87364 -19.8761314,2406.7444 335.758588,1965.012 C691.393307,1523.27961 348.489832,1114.53369 809.510293,830.64408 Z" id="Path-10_1_105" transform="translate(1583.000000, 1654.913043) rotate(73.907441) translate(-1583.000000, -1654.913043) "></path>
            <path d="M809.668211,831.517406 C1269.99852,547.928372 1626.15908,844.228172 1978.40102,949.927423 C2330.64296,1055.62667 2837.60775,908.866123 2910.36418,1262.30591 C2983.1206,1615.74569 2335.52821,2353.09495 1886.27152,2290.68926 C1437.01484,2228.28357 1017.14493,2191.04626 909.066195,2491.35784 C800.987456,2791.66943 -18.4766162,2405.949 336.625716,1964.6843 C691.728048,1523.4196 349.337901,1115.10644 809.668211,831.517406 Z" id="Path-10_1_104" transform="translate(1582.000000, 1654.913664) rotate(73.382266) translate(-1582.000000, -1654.913664) "></path>
            <path d="M809.82613,832.390731 C1269.46629,549.102269 1625.09287,845.088026 1976.80671,950.675247 C2328.52056,1056.26247 2834.72528,909.657468 2907.37262,1262.72265 C2980.01997,1615.78783 2333.39848,2352.35559 1884.81535,2290.01604 C1436.23221,2227.67649 1016.99179,2190.47864 909.075091,2490.47193 C801.15839,2790.46522 -17.077101,2405.15362 337.492844,1964.3566 C692.062788,1523.55959 350.18597,1115.67919 809.82613,832.390731 Z" id="Path-10_1_103" transform="translate(1581.000000, 1654.914286) rotate(72.835872) translate(-1581.000000, -1654.914286) "></path>
            <path d="M809.984049,833.264057 C1268.93406,550.276165 1624.02666,845.94788 1975.21241,951.423073 C2326.39815,1056.89827 2831.84281,910.448814 2904.38107,1263.13939 C2976.91934,1615.82997 2331.26875,2351.61622 1883.35917,2289.34281 C1435.44958,2227.06941 1016.83865,2189.91103 909.083987,2489.58602 C801.329323,2789.26102 -15.6775859,2404.35823 338.359971,1964.02891 C692.397529,1523.69958 351.034039,1116.25195 809.984049,833.264057 Z" id="Path-10_1_102" transform="translate(1580.000000, 1654.914910) rotate(72.268603) translate(-1580.000000, -1654.914910) "></path>
            <path d="M810.141968,834.137383 C1268.40183,551.450061 1622.96046,846.807734 1973.6181,952.170898 C2324.27575,1057.53406 2828.96034,911.240159 2901.38952,1263.55613 C2973.81871,1615.8721 2329.13903,2350.87686 1881.90299,2288.66959 C1434.66695,2226.46233 1016.68551,2189.34342 909.092884,2488.70012 C801.500256,2788.05682 -14.2780707,2403.56285 339.227099,1963.70121 C692.732269,1523.83957 351.882108,1116.82471 810.141968,834.137383 Z" id="Path-10_1_101" transform="translate(1579.000000, 1654.915535) rotate(71.680818) translate(-1579.000000, -1654.915535) "></path>
            <path d="M810.299886,835.010709 C1267.8696,552.623957 1621.89425,847.667588 1972.0238,952.918725 C2322.15335,1058.16986 2826.07787,912.031505 2898.39797,1263.97288 C2970.71808,1615.91425 2327.0093,2350.1375 1880.44681,2287.99638 C1433.88432,2225.85526 1016.53237,2188.77581 909.10178,2487.81422 C801.67119,2786.85263 -12.8785555,2402.76748 340.094227,1963.37352 C693.06701,1523.97957 352.730177,1117.39746 810.299886,835.010709 Z" id="Path-10_1_100" transform="translate(1578.000000, 1654.916163) rotate(71.072887) translate(-1578.000000, -1654.916163) "></path>
            <path d="M810.457805,835.884036 C1267.33736,553.797852 1620.82805,848.527443 1970.4295,953.666551 C2320.03094,1058.80566 2823.1954,912.822852 2895.40642,1264.38962 C2967.61745,1615.95639 2324.87957,2349.39815 1878.99063,2287.32317 C1433.10169,2225.24819 1016.37923,2188.20821 909.110676,2486.92832 C801.842123,2785.64844 -11.4790404,2401.9721 340.961355,1963.04583 C693.40175,1524.11957 353.578246,1117.97022 810.457805,835.884036 Z" id="Path-10_1_99" transform="translate(1577.000000, 1654.916793) rotate(70.445196) translate(-1577.000000, -1654.916793) "></path>
            <path d="M810.615724,836.757363 C1266.80513,554.971747 1619.76184,849.387298 1968.83519,954.414379 C2317.90854,1059.44146 2820.31292,913.614199 2892.41487,1264.80637 C2964.51682,1615.99853 2322.74984,2348.65879 1877.53445,2286.64996 C1432.31905,2224.64112 1016.22609,2187.64061 909.119572,2486.04243 C802.013056,2784.44425 -10.0795252,2401.17673 341.828483,1962.71815 C693.736491,1524.25956 354.426316,1118.54298 810.615724,836.757363 Z" id="Path-10_1_98" transform="translate(1576.000000, 1654.917424) rotate(69.798140) translate(-1576.000000, -1654.917424) "></path>
            <path d="M810.773642,837.63069 C1266.2729,556.145642 1618.69564,850.247153 1967.24089,955.162206 C2315.78614,1060.07726 2817.43045,914.405546 2889.42332,1265.22311 C2961.41619,1616.04068 2320.62012,2347.91944 1876.07827,2285.97675 C1431.53642,2224.03405 1016.07295,2187.07301 909.128469,2485.15654 C802.18399,2783.24007 -8.68001002,2400.38136 342.695611,1962.39046 C694.071232,1524.39956 355.274385,1119.11574 810.773642,837.63069 Z" id="Path-10_1_97" transform="translate(1575.000000, 1654.918058) rotate(69.132128) translate(-1575.000000, -1654.918058) "></path>
            <path d="M810.931561,838.504017 C1265.74067,557.319536 1617.62943,851.107009 1965.64658,955.910034 C2313.66373,1060.71306 2814.54798,915.196894 2886.43177,1265.63986 C2958.31556,1616.08283 2318.49039,2347.1801 1874.62209,2285.30355 C1430.75379,2223.42699 1015.91981,2186.50542 909.137365,2484.27066 C802.354923,2782.0359 -7.28049486,2399.586 343.562739,1962.06278 C694.405972,1524.53957 356.122454,1119.6885 810.931561,838.504017 Z" id="Path-10_1_96" transform="translate(1574.000000, 1654.918693) rotate(68.447581) translate(-1574.000000, -1654.918693) "></path>
            <path d="M811.08948,839.377344 C1265.20844,558.49343 1616.56323,851.966864 1964.05228,956.657863 C2311.54133,1061.34886 2811.66551,915.988242 2883.44022,1266.05661 C2955.21493,1616.12498 2316.36066,2346.44076 1873.16591,2284.63035 C1429.97116,2222.81993 1015.76667,2185.93782 909.146261,2483.38477 C802.525857,2780.83172 -5.88097969,2398.79064 344.429867,1961.73511 C694.740713,1524.67957 356.970523,1120.26126 811.08948,839.377344 Z" id="Path-10_1_95" transform="translate(1573.000000, 1654.919330) rotate(67.744931) translate(-1573.000000, -1654.919330) "></path>
            <path d="M811.247399,840.250672 C1264.67621,559.667324 1615.49702,852.826721 1962.45797,957.405692 C2309.41893,1061.98466 2808.78304,916.779591 2880.44867,1266.47336 C2952.1143,1616.16713 2314.23093,2345.70142 1871.70973,2283.95715 C1429.18853,2222.21288 1015.61352,2185.37024 909.155157,2482.4989 C802.69679,2779.62756 -4.48146452,2397.99528 345.296994,1961.40743 C695.075453,1524.81958 357.818592,1120.83402 811.247399,840.250672 Z" id="Path-10_1_94" transform="translate(1572.000000, 1654.919970) rotate(67.024622) translate(-1572.000000, -1654.919970) "></path>
            <path d="M811.405317,841.124 C1264.14397,560.841217 1614.43081,853.686577 1960.86367,958.153522 C2307.29652,1062.62047 2805.90057,917.57094 2877.45712,1266.89011 C2949.01367,1616.20928 2312.10121,2344.96208 1870.25355,2283.28396 C1428.4059,2221.60583 1015.46038,2184.80265 909.164054,2481.61302 C802.867723,2778.42339 -3.08194936,2397.19993 346.164122,1961.07976 C695.410194,1524.95958 358.666661,1121.40678 811.405317,841.124 Z" id="Path-10_1_93" transform="translate(1571.000000, 1654.920611) rotate(66.287109) translate(-1571.000000, -1654.920611) "></path>
            <path d="M811.563236,841.997328 C1263.61174,562.01511 1613.36461,854.546433 1959.26937,958.901352 C2305.17412,1063.25627 2803.0181,918.362289 2874.46557,1267.30686 C2945.91304,1616.25144 2309.97148,2344.22275 1868.79737,2282.61077 C1427.62327,2220.99878 1015.30724,2184.23507 909.17295,2480.72715 C803.038657,2777.21923 -1.68243419,2396.40458 347.03125,1960.75209 C695.744934,1525.09959 359.51473,1121.97955 811.563236,841.997328 Z" id="Path-10_1_92" transform="translate(1570.000000, 1654.921254) rotate(65.532858) translate(-1570.000000, -1654.921254) "></path>
            <path d="M811.721155,842.870657 C1263.07951,563.189003 1612.2984,855.40629 1957.67506,959.649183 C2303.05172,1063.89208 2800.13563,919.153639 2871.47402,1267.72362 C2942.81241,1616.2936 2307.84175,2343.48342 1867.34119,2281.93758 C1426.84064,2220.39173 1015.1541,2183.66749 909.181846,2479.84128 C803.20959,2776.01508 -0.282919024,2395.60924 347.898378,1960.42442 C696.079675,1525.2396 360.362799,1122.55231 811.721155,842.870657 Z" id="Path-10_1_91" transform="translate(1569.000000, 1654.921899) rotate(64.762344) translate(-1569.000000, -1654.921899) "></path>
            <path d="M811.879074,843.743986 C1262.54728,564.362895 1611.2322,856.266147 1956.08076,960.397014 C2300.92932,1064.52788 2797.25316,919.944989 2868.48247,1268.14037 C2939.71178,1616.33576 2305.71202,2342.7441 1865.88502,2281.26439 C1426.05801,2219.78469 1015.00096,2183.09991 909.190742,2478.95542 C803.380523,2774.81093 1.11659614,2394.81389 348.765506,1960.09675 C696.414416,1525.37961 361.210868,1123.12508 811.879074,843.743986 Z" id="Path-10_1_90" transform="translate(1568.000000, 1654.922546) rotate(63.976056) translate(-1568.000000, -1654.922546) "></path>
            <path d="M812.036992,844.617315 C1262.01505,565.536787 1610.16599,857.126005 1954.48645,961.144845 C2298.80691,1065.16369 2794.37069,920.73634 2865.49092,1268.55713 C2936.61114,1616.37792 2303.5823,2342.00478 1864.42884,2280.59121 C1425.27538,2219.17765 1014.84782,2182.53234 909.199639,2478.06956 C803.551457,2773.60678 2.51611131,2394.01855 349.632634,1959.76909 C696.749156,1525.51963 362.058938,1123.69784 812.036992,844.617315 Z" id="Path-10_1_89" transform="translate(1567.000000, 1654.923195) rotate(63.174489) translate(-1567.000000, -1654.923195) "></path>
            <path d="M812.194911,845.490644 C1261.48282,566.710679 1609.09979,857.985863 1952.89215,961.892678 C2296.68451,1065.79949 2791.48822,921.527691 2862.49937,1268.97389 C2933.51051,1616.42008 2301.45257,2341.26546 1862.97266,2279.91804 C1424.49275,2218.57061 1014.69468,2181.96477 909.208535,2477.1837 C803.72239,2772.40264 3.91562648,2393.22322 350.499762,1959.44143 C697.083897,1525.65964 362.907007,1124.27061 812.194911,845.490644 Z" id="Path-10_1_88" transform="translate(1566.000000, 1654.923846) rotate(62.358150) translate(-1566.000000, -1654.923846) "></path>
            <path d="M812.35283,846.363973 C1260.95058,567.88457 1608.03358,858.845721 1951.29784,962.64051 C2294.56211,1066.4353 2788.60575,922.319042 2859.50782,1269.39064 C2930.40988,1616.46225 2299.32284,2340.52615 1861.51648,2279.24486 C1423.71011,2217.96358 1014.54154,2181.3972 909.217431,2476.29785 C803.893323,2771.1985 5.31514164,2392.42789 351.366889,1959.11377 C697.418637,1525.79966 363.755076,1124.84338 812.35283,846.363973 Z" id="Path-10_1_87" transform="translate(1565.000000, 1654.924499) rotate(61.527554) translate(-1565.000000, -1654.924499) "></path>
            <path d="M812.510748,847.237303 C1260.41835,569.058461 1606.96738,859.705579 1949.70354,963.388343 C2292.4397,1067.07111 2785.72328,923.110394 2856.51627,1269.8074 C2927.30925,1616.50441 2297.19311,2339.78684 1860.0603,2278.57169 C1422.92748,2217.35655 1014.3884,2180.82964 909.226328,2475.412 C804.064257,2769.99437 6.71465681,2391.63256 352.234017,1958.78612 C697.753378,1525.93968 364.603145,1125.41614 812.510748,847.237303 Z" id="Path-10_1_86" transform="translate(1564.000000, 1654.925154) rotate(60.683226) translate(-1564.000000, -1654.925154) "></path>
            <path d="M812.668667,848.110633 C1259.88612,570.232352 1605.90117,860.565437 1948.10923,964.136177 C2290.3173,1067.70692 2782.84081,923.901747 2853.52472,1270.22416 C2924.20862,1616.54658 2295.06339,2339.04753 1858.60412,2277.89853 C1422.14485,2216.74952 1014.23526,2180.26208 909.235224,2474.52616 C804.23519,2768.79024 8.11417198,2390.83724 353.101145,1958.45847 C698.088118,1526.0797 365.451214,1125.98891 812.668667,848.110633 Z" id="Path-10_1_85" transform="translate(1563.000000, 1654.925811) rotate(59.825699) translate(-1563.000000, -1654.925811) "></path>
            <path d="M812.826586,848.983963 C1259.35389,571.406242 1604.83497,861.425296 1946.51493,964.884011 C2288.1949,1068.34273 2779.95834,924.693099 2850.53317,1270.64093 C2921.10799,1616.58875 2292.93366,2338.30823 1857.14794,2277.22536 C1421.36222,2216.1425 1014.08212,2179.69452 909.24412,2473.64032 C804.406123,2767.58612 9.51368714,2390.04191 353.968273,1958.13082 C698.422859,1526.21972 366.299283,1126.56168 812.826586,848.983963 Z" id="Path-10_1_84" transform="translate(1562.000000, 1654.926471) rotate(58.955516) translate(-1562.000000, -1654.926471) "></path>
            <path d="M812.984505,849.857294 C1258.82166,572.580132 1603.76876,862.285155 1944.92063,965.631846 C2286.07249,1068.97854 2777.07587,925.484452 2847.54161,1271.05769 C2918.00736,1616.63093 2290.80393,2337.56893 1855.69176,2276.5522 C1420.57959,2215.53548 1013.92898,2179.12696 909.253016,2472.75448 C804.577057,2766.382 10.9132023,2389.2466 354.835401,1957.80317 C698.757599,1526.35974 367.147352,1127.13446 812.984505,849.857294 Z" id="Path-10_1_83" transform="translate(1561.000000, 1654.927132) rotate(58.073224) translate(-1561.000000, -1654.927132) "></path>
            <path d="M813.142423,850.730625 C1258.28943,573.754022 1602.70255,863.145015 1943.32632,966.379681 C2283.95009,1069.61435 2774.1934,926.275806 2844.55006,1271.47445 C2914.90673,1616.6731 2288.6742,2336.82963 1854.23558,2275.87905 C1419.79696,2214.92846 1013.77584,2178.55941 909.261913,2471.86865 C804.74799,2765.17788 12.3127175,2388.45128 355.702529,1957.47553 C699.09234,1526.49977 367.995421,1127.70723 813.142423,850.730625 Z" id="Path-10_1_82" transform="translate(1560.000000, 1654.927795) rotate(57.179383) translate(-1560.000000, -1654.927795) "></path>
            <path d="M813.300342,851.603956 C1257.75719,574.927911 1601.63635,864.004875 1941.73202,967.127517 C2281.82769,1070.25016 2771.31093,927.06716 2841.55851,1271.89122 C2911.8061,1616.71528 2286.54448,2336.09034 1852.7794,2275.20589 C1419.01433,2214.32145 1013.62269,2177.99187 909.270809,2470.98282 C804.918923,2763.97377 13.7122326,2387.65597 356.569657,1957.14789 C699.427081,1526.6398 368.84349,1128.28 813.300342,851.603956 Z" id="Path-10_1_81" transform="translate(1559.000000, 1654.928460) rotate(56.274556) translate(-1559.000000, -1654.928460) "></path>
            <path d="M813.458261,852.477287 C1257.22496,576.101799 1600.57014,864.864735 1940.13771,967.875353 C2279.70528,1070.88597 2768.42846,927.858515 2838.56696,1272.30799 C2908.70547,1616.75746 2284.41475,2335.35105 1851.32322,2274.53274 C1418.2317,2213.71444 1013.46955,2177.42432 909.279705,2470.09699 C805.089857,2762.76967 15.1117478,2386.86067 357.436784,1956.82025 C699.761821,1526.77983 369.69156,1128.85277 813.458261,852.477287 Z" id="Path-10_1_80" transform="translate(1558.000000, 1654.929128) rotate(55.359315) translate(-1558.000000, -1654.929128) "></path>
            <path d="M813.61618,853.350618 C1256.69273,577.275688 1599.50394,865.724595 1938.54341,968.62319 C2277.58288,1071.52179 2765.54599,928.649869 2835.57541,1272.72475 C2905.60484,1616.79964 2282.28502,2334.61176 1849.86704,2273.8596 C1417.44907,2213.10743 1013.31641,2176.85678 909.288601,2469.21117 C805.26079,2761.56557 16.511263,2386.06537 358.303912,1956.49261 C700.096562,1526.91986 370.539629,1129.42555 813.61618,853.350618 Z" id="Path-10_1_79" transform="translate(1557.000000, 1654.929797) rotate(54.434237) translate(-1557.000000, -1654.929797) "></path>
            <path d="M813.774098,854.22395 C1256.1605,578.449576 1598.43773,866.584455 1936.9491,969.371027 C2275.46048,1072.1576 2762.66352,929.441225 2832.58386,1273.14152 C2902.50421,1616.84182 2280.15529,2333.87248 1848.41087,2273.18645 C1416.66644,2212.50043 1013.16327,2176.28924 909.297498,2468.32536 C805.431723,2760.36147 17.9107781,2385.27007 359.17104,1956.16498 C700.431302,1527.05989 371.387698,1129.99832 813.774098,854.22395 Z" id="Path-10_1_78" transform="translate(1556.000000, 1654.930469) rotate(53.499908) translate(-1556.000000, -1654.930469) "></path>
            <path d="M813.932017,855.097282 C1255.62827,579.623464 1597.37153,867.444316 1935.3548,970.118865 C2273.33807,1072.79341 2759.78105,930.23258 2829.59231,1273.55829 C2899.40358,1616.88401 2278.02557,2333.1332 1846.95469,2272.51332 C1415.8838,2211.89343 1013.01013,2175.72171 909.306394,2467.43954 C805.602657,2759.15738 19.3102933,2384.47477 360.038168,1955.83735 C700.766043,1527.19993 372.235767,1130.5711 813.932017,855.097282 Z" id="Path-10_1_77" transform="translate(1555.000000, 1654.931142) rotate(52.556918) translate(-1555.000000, -1654.931142) "></path>
            <path d="M814.089936,855.970615 C1255.09604,580.797351 1596.30532,868.304177 1933.7605,970.866704 C2271.21567,1073.42923 2756.89858,931.023937 2826.60076,1273.97507 C2896.30295,1616.92619 2275.89584,2332.39393 1845.49851,2271.84018 C1415.10117,2211.28644 1012.85699,2175.15418 909.31529,2466.55373 C805.77359,2757.95329 20.7098085,2383.67948 360.905296,1955.50972 C701.100783,1527.33996 373.083836,1131.14388 814.089936,855.970615 Z" id="Path-10_1_76" transform="translate(1554.000000, 1654.931818) rotate(51.605861) translate(-1554.000000, -1654.931818) "></path>
            <path d="M814.247854,856.843947 C1254.5638,581.971238 1595.23912,869.164039 1932.16619,971.614542 C2269.09327,1074.06505 2754.01611,931.815293 2823.60921,1274.39184 C2893.20232,1616.96838 2273.76611,2331.65465 1844.04233,2271.16705 C1414.31854,2210.67944 1012.70385,2174.58665 909.324186,2465.66793 C805.944523,2756.74921 22.1093236,2382.8842 361.772424,1955.1821 C701.435524,1527.48 373.931905,1131.71666 814.247854,856.843947 Z" id="Path-10_1_75" transform="translate(1553.000000, 1654.932496) rotate(50.647340) translate(-1553.000000, -1654.932496) "></path>
            <path d="M814.405773,857.71728 C1254.03157,583.145125 1594.17291,870.023901 1930.57189,972.362382 C2266.97086,1074.70086 2751.13364,932.60665 2820.61766,1274.80861 C2890.10169,1617.01057 2271.63638,2330.91539 1842.58615,2270.49392 C1413.53591,2210.07245 1012.55071,2174.01912 909.333083,2464.78213 C806.115457,2755.54513 23.5088388,2382.08891 362.639552,1954.85448 C701.770264,1527.62004 374.779974,1132.28944 814.405773,857.71728 Z" id="Path-10_1_74" transform="translate(1552.000000, 1654.933176) rotate(49.681958) translate(-1552.000000, -1654.933176) "></path>
            <path d="M814.563692,858.590614 C1253.49934,584.319011 1593.1067,870.883763 1928.97758,973.110222 C2264.84846,1075.33668 2748.25116,933.398008 2817.62611,1275.22539 C2887.00106,1617.05277 2269.50666,2330.17612 1841.12997,2269.82079 C1412.75328,2209.46547 1012.39757,2173.4516 909.341979,2463.89633 C806.28639,2754.34106 24.908354,2381.29363 363.506679,1954.52686 C702.105005,1527.76008 375.628043,1132.86222 814.563692,858.590614 Z" id="Path-10_1_73" transform="translate(1551.000000, 1654.933858) rotate(48.710326) translate(-1551.000000, -1654.933858) "></path>
            <path d="M814.721611,859.463947 C1252.96711,585.492897 1592.0405,871.743625 1927.38328,973.858062 C2262.72606,1075.9725 2745.36869,934.189366 2814.63456,1275.64216 C2883.90042,1617.09496 2267.37693,2329.43686 1839.67379,2269.14767 C1411.97065,2208.85848 1012.24443,2172.88408 909.350875,2463.01054 C806.457324,2753.13699 26.3078691,2380.49836 364.373807,1954.19924 C702.439746,1527.90013 376.476112,1133.435 814.721611,859.463947 Z" id="Path-10_1_72" transform="translate(1550.000000, 1654.934543) rotate(47.733058) translate(-1550.000000, -1654.934543) "></path>
            <path d="M814.879529,860.337281 C1252.43488,586.666782 1590.97429,872.603488 1925.78897,974.605904 C2260.60365,1076.60832 2742.48622,934.980724 2811.64301,1276.05894 C2880.79979,1617.13716 2265.2472,2328.69761 1838.21761,2268.47456 C1411.18802,2208.2515 1012.09129,2172.31657 909.359771,2462.12475 C806.628257,2751.93292 27.7073843,2379.70309 365.240935,1953.87163 C702.774486,1528.04017 377.324182,1134.00778 814.879529,860.337281 Z" id="Path-10_1_71" transform="translate(1549.000000, 1654.935229) rotate(46.750771) translate(-1549.000000, -1654.935229) "></path>
            <path d="M815.037448,861.210615 C1251.90265,587.840667 1589.90809,873.463351 1924.19467,975.353745 C2258.48125,1077.24414 2739.60375,935.772083 2808.65146,1276.47572 C2877.69916,1617.17936 2263.11748,2327.95835 1836.76143,2267.80144 C1410.40539,2207.64453 1011.93815,2171.74906 909.368668,2461.23896 C806.79919,2750.72886 29.1068995,2378.90782 366.108063,1953.54402 C703.109227,1528.18022 378.172251,1134.58056 815.037448,861.210615 Z" id="Path-10_1_70" transform="translate(1548.000000, 1654.935918) rotate(45.764085) translate(-1548.000000, -1654.935918) "></path>
            <path d="M815.195367,862.083949 C1251.37041,589.014552 1588.84188,874.323214 1922.60036,976.101587 C2256.35885,1077.87996 2736.72128,936.563443 2805.65991,1276.8925 C2874.59853,1617.22156 2260.98775,2327.21911 1835.30525,2267.12833 C1409.62276,2207.03756 1011.785,2171.18155 909.377564,2460.35318 C806.970124,2749.52481 30.5064146,2378.11255 366.975191,1953.21641 C703.443967,1528.32027 379.02032,1135.15335 815.195367,862.083949 Z" id="Path-10_1_69" transform="translate(1547.000000, 1654.936609) rotate(44.773624) translate(-1547.000000, -1654.936609) "></path>
            <path d="M815.353285,862.957284 C1250.83818,590.188436 1587.77568,875.183078 1921.00606,976.84943 C2254.23644,1078.51578 2733.83881,937.354802 2802.66836,1277.30928 C2871.4979,1617.26376 2258.85802,2326.47986 1833.84907,2266.45522 C1408.84013,2206.43059 1011.63186,2170.61405 909.38646,2459.4674 C807.141057,2748.32076 31.9059298,2377.31729 367.842319,1952.88881 C703.778708,1528.46032 379.868389,1135.72613 815.353285,862.957284 Z" id="Path-10_1_68" transform="translate(1546.000000, 1654.937302) rotate(43.780012) translate(-1546.000000, -1654.937302) "></path>
            <path d="M815.511204,863.830618 C1250.30595,591.36232 1586.70947,876.042942 1919.41176,977.597273 C2252.11404,1079.15161 2730.95634,938.146163 2799.67681,1277.72607 C2868.39727,1617.30597 2256.72829,2325.74062 1832.39289,2265.78212 C1408.0575,2205.82362 1011.47872,2170.04655 909.395356,2458.58163 C807.31199,2747.11672 33.305445,2376.52204 368.709447,1952.56121 C704.113448,1528.60037 380.716458,1136.29892 815.511204,863.830618 Z" id="Path-10_1_67" transform="translate(1545.000000, 1654.937997) rotate(42.783879) translate(-1545.000000, -1654.937997) "></path>
            <path d="M815.669123,864.703954 C1249.77372,592.536204 1585.64327,876.902806 1917.81745,978.345117 C2249.99164,1079.78743 2728.07387,938.937523 2796.68526,1278.14285 C2865.29664,1617.34818 2254.59857,2325.00138 1830.93671,2265.10902 C1407.27486,2205.21666 1011.32558,2169.47905 909.404253,2457.69586 C807.482924,2745.91268 34.7049601,2375.72679 369.576575,1952.23361 C704.448189,1528.74043 381.564527,1136.8717 815.669123,864.703954 Z" id="Path-10_1_66" transform="translate(1544.000000, 1654.938694) rotate(41.785852) translate(-1544.000000, -1654.938694) "></path>
            <path d="M815.827042,865.577289 C1249.24149,593.710087 1584.57706,877.76267 1916.22315,979.092962 C2247.86923,1080.42325 2725.1914,939.728885 2793.69371,1278.55964 C2862.19601,1617.39039 2252.46884,2324.26215 1829.48054,2264.43593 C1406.49223,2204.6097 1011.17244,2168.91155 909.413149,2456.8101 C807.653857,2744.70864 36.1044753,2374.93154 370.443702,1951.90601 C704.782929,1528.88049 382.412596,1137.44449 815.827042,865.577289 Z" id="Path-10_1_65" transform="translate(1543.000000, 1654.939394) rotate(40.786562) translate(-1543.000000, -1654.939394) "></path>
            <path d="M815.98496,866.450625 C1248.70926,594.88397 1583.51086,878.622535 1914.62884,979.840807 C2245.74683,1081.05908 2722.30893,940.520246 2790.70216,1278.97642 C2859.09538,1617.4326 2250.33911,2323.52292 1828.02436,2263.76283 C1405.7096,2204.00275 1011.0193,2168.34406 909.422045,2455.92434 C807.82479,2743.50461 37.5039905,2374.13629 371.31083,1951.57842 C705.11767,1529.02055 383.260665,1138.01728 815.98496,866.450625 Z" id="Path-10_1_64" transform="translate(1542.000000, 1654.940096) rotate(39.786641) translate(-1542.000000, -1654.940096) "></path>
            <path d="M816.142879,867.323961 C1248.17702,596.057852 1582.44465,879.4824 1913.03454,980.588652 C2243.62443,1081.6949 2719.42646,941.311608 2787.71061,1279.39321 C2855.99475,1617.47481 2248.20938,2322.7837 1826.56818,2263.08975 C1404.92697,2203.3958 1010.86616,2167.77658 909.430941,2455.03858 C807.995724,2742.30059 38.9035056,2373.34105 372.177958,1951.25083 C705.452411,1529.16061 384.108735,1138.59007 816.142879,867.323961 Z" id="Path-10_1_63" transform="translate(1541.000000, 1654.940800) rotate(38.786720) translate(-1541.000000, -1654.940800) "></path>
            <path d="M816.300798,868.197297 C1247.64479,597.231734 1581.37844,880.342266 1911.44023,981.336498 C2241.50202,1082.33073 2716.54399,942.102971 2784.71905,1279.81 C2852.89412,1617.51703 2246.07966,2322.04447 1825.112,2262.41666 C1404.14434,2202.78885 1010.71302,2167.20909 909.439838,2454.15283 C808.166657,2741.09657 40.3030208,2372.54582 373.045086,1950.92324 C705.787151,1529.30067 384.956804,1139.16286 816.300798,868.197297 Z" id="Path-10_1_62" transform="translate(1540.000000, 1654.941506) rotate(37.787431) translate(-1540.000000, -1654.941506) "></path>
            <path d="M816.458717,869.070633 C1247.11256,598.405616 1580.31224,881.202132 1909.84593,982.084345 C2239.37962,1082.96656 2713.66152,942.894334 2781.7275,1280.22679 C2849.79349,1617.55925 2243.94993,2321.30526 1823.65582,2261.74358 C1403.36171,2202.18191 1010.55988,2166.64161 909.448734,2453.26708 C808.33759,2739.89255 41.702536,2371.75059 373.912214,1950.59566 C706.121892,1529.44074 385.804873,1139.73565 816.458717,869.070633 Z" id="Path-10_1_61" transform="translate(1539.000000, 1654.942215) rotate(36.789404) translate(-1539.000000, -1654.942215) "></path>
            <path d="M816.616635,869.94397 C1246.58033,599.579497 1579.24603,882.061998 1908.25163,982.832192 C2237.25722,1083.60239 2710.77905,943.685698 2778.73595,1280.64358 C2846.69286,1617.60147 2241.8202,2320.56604 1822.19964,2261.07051 C1402.57908,2201.57497 1010.40674,2166.07414 909.45763,2452.38134 C808.508524,2738.68854 43.1020511,2370.95536 374.779342,1950.26808 C706.456632,1529.5808 386.652942,1140.30844 816.616635,869.94397 Z" id="Path-10_1_60" transform="translate(1538.000000, 1654.942926) rotate(35.793271) translate(-1538.000000, -1654.942926) "></path>
            <path d="M816.774554,870.817307 C1246.0481,600.753378 1578.17983,882.921864 1906.65732,983.58004 C2235.13481,1084.23822 2707.89658,944.477062 2775.7444,1281.06038 C2843.59223,1617.64369 2239.69047,2319.82683 1820.74346,2260.39743 C1401.79645,2200.96803 1010.2536,2165.50666 909.466527,2451.4956 C808.679457,2737.48454 44.5015663,2370.16014 375.64647,1949.9405 C706.791373,1529.72087 387.501011,1140.88124 816.774554,870.817307 Z" id="Path-10_1_59" transform="translate(1537.000000, 1654.943639) rotate(34.799659) translate(-1537.000000, -1654.943639) "></path>
            <path d="M816.932473,871.690645 C1245.51587,601.927258 1577.11362,883.781731 1905.06302,984.327888 C2233.01241,1084.87405 2705.01411,945.268426 2772.75285,1281.47717 C2840.4916,1617.68592 2237.56075,2319.08763 1819.28728,2259.72436 C1401.01382,2200.3611 1010.10046,2164.9392 909.475423,2450.60987 C808.85039,2736.28054 45.9010815,2369.36492 376.513597,1949.61293 C707.126113,1529.86094 388.34908,1141.45403 816.932473,871.690645 Z" id="Path-10_1_58" transform="translate(1536.000000, 1654.944355) rotate(33.809198) translate(-1536.000000, -1654.944355) "></path>
            <path d="M817.090391,872.563982 C1244.98363,603.101138 1576.04742,884.641598 1903.46871,985.075737 C2230.89001,1085.50988 2702.13164,946.059791 2769.7613,1281.89397 C2837.39097,1617.72814 2235.43102,2318.34843 1817.8311,2259.0513 C1400.23119,2199.75417 1009.94731,2164.37173 909.484319,2449.72414 C809.021324,2735.07655 47.3005966,2368.5697 377.380725,1949.28536 C707.460854,1530.00101 389.197149,1142.02683 817.090391,872.563982 Z" id="Path-10_1_57" transform="translate(1535.000000, 1654.945073) rotate(32.822512) translate(-1535.000000, -1654.945073) "></path>
            <path d="M817.24831,873.43732 C1244.4514,604.275018 1574.98121,885.501465 1901.87441,985.823587 C2228.7676,1086.14571 2699.24917,946.851157 2766.76975,1282.31077 C2834.29034,1617.77037 2233.30129,2317.60923 1816.37492,2258.37824 C1399.44856,2199.14724 1009.79417,2163.80427 909.493215,2448.83841 C809.192257,2733.87256 48.7001118,2367.77449 378.247853,1948.95779 C707.795594,1530.14109 390.045218,1142.59962 817.24831,873.43732 Z" id="Path-10_1_56" transform="translate(1534.000000, 1654.945793) rotate(31.840225) translate(-1534.000000, -1654.945793) "></path>
            <path d="M817.406229,874.310659 C1243.91917,605.448897 1573.91501,886.361333 1900.2801,986.571437 C2226.6452,1086.78154 2696.3667,947.642523 2763.7782,1282.72756 C2831.1897,1617.81261 2231.17156,2316.87004 1814.91874,2257.70518 C1398.66592,2198.54032 1009.64103,2163.23681 909.502112,2447.95269 C809.36319,2732.66857 50.099627,2366.97928 379.114981,1948.63022 C708.130335,1530.28117 390.893287,1143.17242 817.406229,874.310659 Z" id="Path-10_1_55" transform="translate(1533.000000, 1654.946515) rotate(30.862956) translate(-1533.000000, -1654.946515) "></path>
            <path d="M817.564148,875.183997 C1243.38694,606.622776 1572.8488,887.221201 1898.6858,987.319288 C2224.5228,1087.41737 2693.48423,948.433889 2760.78665,1283.14436 C2828.08907,1617.85484 2229.04184,2316.13085 1813.46256,2257.03213 C1397.88329,2197.93341 1009.48789,2162.66936 909.511008,2447.06697 C809.534124,2731.46459 51.4991421,2366.18408 379.982109,1948.30266 C708.465076,1530.42124 391.741357,1143.74522 817.564148,875.183997 Z" id="Path-10_1_54" transform="translate(1532.000000, 1654.947240) rotate(29.891325) translate(-1532.000000, -1654.947240) "></path>
            <path d="M817.722066,876.057336 C1242.85471,607.796654 1571.78259,888.081069 1897.09149,988.067139 C2222.4004,1088.05321 2690.60176,949.225256 2757.7951,1283.56117 C2824.98844,1617.89708 2226.91211,2315.39166 1812.00639,2256.35908 C1397.10066,2197.32649 1009.33475,2162.10191 909.519904,2446.18126 C809.705057,2730.26062 52.8986573,2365.38888 380.849237,1947.9751 C708.799816,1530.56133 392.589426,1144.31802 817.722066,876.057336 Z" id="Path-10_1_53" transform="translate(1531.000000, 1654.947967) rotate(28.925943) translate(-1531.000000, -1654.947967) "></path>
            <path d="M817.879985,876.930675 C1242.32248,608.970532 1570.71639,888.940938 1895.49719,988.814991 C2220.27799,1088.68904 2687.71929,950.016623 2754.80355,1283.97797 C2821.88781,1617.93931 2224.78238,2314.65248 1810.55021,2255.68603 C1396.31803,2196.71958 1009.18161,2161.53446 909.5288,2445.29555 C809.875991,2729.05665 54.2981725,2364.59369 381.716365,1947.64755 C709.134557,1530.70141 393.437495,1144.89082 817.879985,876.930675 Z" id="Path-10_1_52" transform="translate(1530.000000, 1654.948697) rotate(27.967421) translate(-1530.000000, -1654.948697) "></path>
            <path d="M818.037904,877.804015 C1241.79024,610.14441 1569.65018,889.800807 1893.90289,989.562844 C2218.15559,1089.32488 2684.83682,950.807991 2751.812,1284.39477 C2818.78718,1617.98156 2222.65265,2313.9133 1809.09403,2255.01299 C1395.5354,2196.11268 1009.02847,2160.96702 909.537697,2444.40985 C810.046924,2727.85269 55.6976876,2363.7985 382.583492,1947.32 C709.469297,1530.84149 394.285564,1145.46362 818.037904,877.804015 Z" id="Path-10_1_51" transform="translate(1529.000000, 1654.949429) rotate(27.016365) translate(-1529.000000, -1654.949429) "></path>
            <path d="M818.195822,878.677355 C1241.25801,611.318287 1568.58398,890.660677 1892.30858,990.310697 C2216.03319,1089.96072 2681.95435,951.59936 2748.82045,1284.81158 C2815.68655,1618.0238 2220.52293,2313.17413 1807.63785,2254.33995 C1394.75277,2195.50577 1008.87533,2160.39958 909.546593,2443.52415 C810.217857,2726.64873 57.0972028,2363.00331 383.45062,1946.99245 C709.804038,1530.98158 395.133633,1146.03642 818.195822,878.677355 Z" id="Path-10_1_50" transform="translate(1528.000000, 1654.950163) rotate(26.073374) translate(-1528.000000, -1654.950163) "></path>
            <path d="M818.353741,879.550695 C1240.72578,612.492164 1567.51777,891.520546 1890.71428,991.058551 C2213.91078,1090.59656 2679.07188,952.390729 2745.8289,1285.22839 C2812.58592,1618.06604 2218.3932,2312.43496 1806.18167,2253.66692 C1393.97014,2194.89888 1008.72219,2159.83214 909.555489,2442.63846 C810.388791,2725.44478 58.496718,2362.20813 384.317748,1946.6649 C710.138778,1531.12167 395.981702,1146.60923 818.353741,879.550695 Z" id="Path-10_1_49" transform="translate(1527.000000, 1654.950900) rotate(25.139045) translate(-1527.000000, -1654.950900) "></path>
            <path d="M818.51166,880.424035 C1240.19355,613.66604 1566.45157,892.380416 1889.11997,991.806405 C2211.78838,1091.23239 2676.18941,953.182098 2742.83735,1285.64519 C2809.48529,1618.10829 2216.26347,2311.6958 1804.72549,2252.99389 C1393.18751,2194.29198 1008.56905,2159.26471 909.564385,2441.75277 C810.559724,2724.24083 59.8962331,2361.41295 385.184876,1946.33736 C710.473519,1531.26176 396.829771,1147.18203 818.51166,880.424035 Z" id="Path-10_1_48" transform="translate(1526.000000, 1654.951639) rotate(24.213968) translate(-1526.000000, -1654.951639) "></path>
            <path d="M818.669579,881.297376 C1239.66132,614.839916 1565.38536,893.240287 1887.52567,992.55426 C2209.66598,1091.86823 2673.30693,953.973468 2739.8458,1286.062 C2806.38466,1618.15054 2214.13374,2310.95664 1803.26931,2252.32086 C1392.40488,2193.68509 1008.41591,2158.69728 909.573282,2440.86708 C810.730657,2723.03689 61.2957483,2360.61778 386.052004,1946.00982 C710.80826,1531.40185 397.67784,1147.75484 818.669579,881.297376 Z" id="Path-10_1_47" transform="translate(1525.000000, 1654.952381) rotate(23.298727) translate(-1525.000000, -1654.952381) "></path>
            <path d="M818.827497,882.170717 C1239.12909,616.013792 1564.31916,894.100158 1885.93136,993.302116 C2207.54357,1092.50407 2670.42446,954.764839 2736.85425,1286.47882 C2803.28403,1618.19279 2212.00402,2310.21748 1801.81313,2251.64784 C1391.62225,2193.0782 1008.26277,2158.12986 909.582178,2439.9814 C810.901591,2721.83295 62.6952635,2359.82261 386.919132,1945.68228 C711.143,1531.54195 398.525909,1148.32764 818.827497,882.170717 Z" id="Path-10_1_46" transform="translate(1524.000000, 1654.953125) rotate(22.393900) translate(-1524.000000, -1654.953125) "></path>
            <path d="M818.985416,883.044058 C1238.59685,617.187667 1563.25295,894.960029 1884.33706,994.049972 C2205.42117,1093.13992 2667.54199,955.55621 2733.8627,1286.89563 C2800.1834,1618.23505 2209.87429,2309.47833 1800.35695,2250.97483 C1390.83961,2192.47132 1008.10962,2157.56244 909.591074,2439.09573 C811.072524,2720.62902 64.0947786,2359.02745 387.78626,1945.35475 C711.477741,1531.68205 399.373979,1148.90045 818.985416,883.044058 Z" id="Path-10_1_45" transform="translate(1523.000000, 1654.953871) rotate(21.500058) translate(-1523.000000, -1654.953871) "></path>
            <path d="M819.143335,883.9174 C1238.06462,618.361541 1562.18674,895.8199 1882.74276,994.797829 C2203.29877,1093.77576 2664.65952,956.347581 2730.87115,1287.31244 C2797.08277,1618.27731 2207.74456,2308.73918 1798.90077,2250.30181 C1390.05698,2191.86444 1007.95648,2156.99502 909.59997,2438.21006 C811.243457,2719.42509 65.4942938,2358.23229 388.653388,1945.02722 C711.812481,1531.82215 400.222048,1149.47326 819.143335,883.9174 Z" id="Path-10_1_44" transform="translate(1522.000000, 1654.954620) rotate(20.617767) translate(-1522.000000, -1654.954620) "></path>
            <path d="M819.301254,884.790742 C1237.53239,619.535415 1561.12054,896.679772 1881.14845,995.545686 C2201.17636,1094.4116 2661.77705,957.138953 2727.8796,1287.72926 C2793.98214,1618.31957 2205.61483,2308.00004 1797.44459,2249.6288 C1389.27435,2191.25757 1007.80334,2156.42761 909.608867,2437.32439 C811.414391,2718.22117 66.893809,2357.43714 389.520515,1944.69969 C712.147222,1531.96225 401.070117,1150.04607 819.301254,884.790742 Z" id="Path-10_1_43" transform="translate(1521.000000, 1654.955372) rotate(19.747583) translate(-1521.000000, -1654.955372) "></path>
            <path d="M819.459172,885.664084 C1237.00016,620.709289 1560.05433,897.539644 1879.55415,996.293544 C2199.05396,1095.04744 2658.89458,957.930326 2724.88804,1288.14608 C2790.88151,1618.36183 2203.48511,2307.2609 1795.98841,2248.9558 C1388.49172,2190.6507 1007.6502,2155.8602 909.617763,2436.43873 C811.585324,2717.01726 68.2933241,2356.64198 390.387643,1944.37217 C712.481962,1532.10235 401.918186,1150.61888 819.459172,885.664084 Z" id="Path-10_1_42" transform="translate(1520.000000, 1654.956126) rotate(18.890057) translate(-1520.000000, -1654.956126) "></path>
            <path d="M819.617091,886.537427 C1236.46793,621.883162 1558.98813,898.399516 1877.95984,997.041403 C2196.93156,1095.68329 2656.01211,958.721699 2721.89649,1288.5629 C2787.78088,1618.40409 2201.35538,2306.52177 1794.53224,2248.2828 C1387.70909,2190.04383 1007.49706,2155.29279 909.626659,2435.55307 C811.756257,2715.81335 69.6928393,2355.84684 391.254771,1944.04465 C712.816703,1532.24246 402.766255,1151.19169 819.617091,886.537427 Z" id="Path-10_1_41" transform="translate(1519.000000, 1654.956882) rotate(18.045729) translate(-1519.000000, -1654.956882) "></path>
            <path d="M819.77501,887.41077 C1235.9357,623.057035 1557.92192,899.259389 1876.36554,997.789262 C2194.80915,1096.31914 2653.12964,959.513072 2718.90494,1288.97972 C2784.68025,1618.44636 2199.22565,2305.78264 1793.07606,2247.6098 C1386.92646,2189.43697 1007.34392,2154.72539 909.635555,2434.66742 C811.927191,2714.60944 71.0923545,2355.0517 392.121899,1943.71713 C713.151443,1532.38257 403.614324,1151.7645 819.77501,887.41077 Z" id="Path-10_1_40" transform="translate(1518.000000, 1654.957641) rotate(17.215133) translate(-1518.000000, -1654.957641) "></path>
            <path d="M819.932928,888.284113 C1235.40346,624.230908 1556.85572,900.119262 1874.77123,998.537122 C2192.68675,1096.95498 2650.24717,960.304446 2715.91339,1289.39654 C2781.57962,1618.48863 2197.09592,2305.04351 1791.61988,2246.93681 C1386.14383,2188.83011 1007.19078,2154.15799 909.644452,2433.78177 C812.098124,2713.40555 72.4918696,2354.25656 392.989027,1943.38962 C713.486184,1532.52268 404.462393,1152.33732 819.932928,888.284113 Z" id="Path-10_1_39" transform="translate(1517.000000, 1654.958403) rotate(16.398794) translate(-1517.000000, -1654.958403) "></path>
            <path d="M820.090847,889.157456 C1234.87123,625.40478 1555.78951,900.979136 1873.17693,999.284983 C2190.56435,1097.59083 2647.3647,961.095821 2712.92184,1289.81336 C2778.47898,1618.5309 2194.9662,2304.30439 1790.1637,2246.26382 C1385.3612,2188.22325 1007.03764,2153.5906 909.653348,2432.89613 C812.269057,2712.20165 73.8913848,2353.46143 393.856155,1943.06211 C713.820925,1532.66279 405.310462,1152.91013 820.090847,889.157456 Z" id="Path-10_1_38" transform="translate(1516.000000, 1654.959167) rotate(15.597227) translate(-1516.000000, -1654.959167) "></path>
            <path d="M820.248766,890.0308 C1234.339,626.578651 1554.72331,901.83901 1871.58262,1000.03284 C2188.44194,1098.22668 2644.48223,961.887196 2709.93029,1290.23018 C2775.37835,1618.57317 2192.83647,2303.56527 1788.70752,2245.59084 C1384.57857,2187.6164 1006.8845,2153.02321 909.662244,2432.01049 C812.439991,2710.99777 75.2909,2352.6663 394.723283,1942.7346 C714.155665,1532.8029 406.158531,1153.48295 820.248766,890.0308 Z" id="Path-10_1_37" transform="translate(1515.000000, 1654.959933) rotate(14.810938) translate(-1515.000000, -1654.959933) "></path>
            <path d="M820.406685,890.904145 C1233.80677,627.752522 1553.6571,902.698884 1869.98832,1000.78071 C2186.31954,1098.86253 2641.59976,962.678572 2706.93874,1290.64701 C2772.27772,1618.61545 2190.70674,2302.82616 1787.25134,2244.91786 C1383.79594,2187.00956 1006.73136,2152.45583 909.67114,2431.12486 C812.610924,2709.79388 76.6904151,2351.87118 395.59041,1942.4071 C714.490406,1532.94302 407.006601,1154.05577 820.406685,890.904145 Z" id="Path-10_1_36" transform="translate(1514.000000, 1654.960702) rotate(14.040425) translate(-1514.000000, -1654.960702) "></path>
            <path d="M820.564603,891.777489 C1233.27454,628.926393 1552.5909,903.558759 1868.39402,1001.52857 C2184.19714,1099.49838 2638.71729,963.469948 2703.94719,1291.06384 C2769.17709,1618.65773 2188.57701,2302.08705 1785.79516,2244.24488 C1383.01331,2186.40272 1006.57822,2151.88845 909.680037,2430.23923 C812.781857,2708.59001 78.0899303,2351.07606 396.457538,1942.0796 C714.825146,1533.08314 407.85467,1154.62859 820.564603,891.777489 Z" id="Path-10_1_35" transform="translate(1513.000000, 1654.961474) rotate(13.286174) translate(-1513.000000, -1654.961474) "></path>
            <path d="M820.722522,892.650834 C1232.74231,630.100263 1551.52469,904.418634 1866.79971,1002.27643 C2182.07473,1100.13423 2635.83482,964.261325 2700.95564,1291.48067 C2766.07646,1618.70001 2186.44729,2301.34795 1784.33898,2243.57191 C1382.23067,2185.79588 1006.42508,2151.32107 909.688933,2429.3536 C812.952791,2707.38614 79.4894455,2350.28094 397.324666,1941.7521 C715.159887,1533.22326 408.702739,1155.2014 820.722522,892.650834 Z" id="Path-10_1_34" transform="translate(1512.000000, 1654.962248) rotate(12.548661) translate(-1512.000000, -1654.962248) "></path>
            <path d="M820.880441,893.524179 C1232.21007,631.274133 1550.45848,905.278509 1865.20541,1003.0243 C2179.95233,1100.77008 2632.95235,965.052702 2697.96409,1291.8975 C2762.97583,1618.74229 2184.31756,2300.60885 1782.8828,2242.89895 C1381.44804,2185.18904 1006.27193,2150.7537 909.697829,2428.46799 C813.123724,2706.18227 80.8889606,2349.48584 398.191794,1941.42461 C715.494627,1533.36338 409.550808,1155.77423 820.880441,893.524179 Z" id="Path-10_1_33" transform="translate(1511.000000, 1654.963025) rotate(11.828352) translate(-1511.000000, -1654.963025) "></path>
            <path d="M821.03836,894.397525 C1231.67784,632.448002 1549.39228,906.138385 1863.6111,1003.77216 C2177.82993,1101.40594 2630.06988,965.84408 2694.97254,1292.31433 C2759.8752,1618.78458 2182.18783,2299.86976 1781.42662,2242.22598 C1380.66541,2184.58221 1006.11879,2150.18633 909.706726,2427.58237 C813.294657,2704.97842 82.2884758,2348.69073 399.058922,1941.09712 C715.829368,1533.50351 410.398877,1156.34705 821.03836,894.397525 Z" id="Path-10_1_32" transform="translate(1510.000000, 1654.963805) rotate(11.125702) translate(-1510.000000, -1654.963805) "></path>
            <path d="M821.196278,895.27087 C1231.14561,633.621871 1548.32607,906.998261 1862.0168,1004.52003 C2175.70752,1102.04179 2627.18741,966.635458 2691.98099,1292.73116 C2756.77457,1618.82687 2180.0581,2299.13067 1779.97044,2241.55303 C1379.88278,2183.97539 1005.96565,2149.61896 909.715622,2426.69676 C813.465591,2703.77456 83.687991,2347.89563 399.92605,1940.76963 C716.164108,1533.64364 411.246946,1156.91987 821.196278,895.27087 Z" id="Path-10_1_31" transform="translate(1509.000000, 1654.964587) rotate(10.441154) translate(-1509.000000, -1654.964587) "></path>
            <path d="M821.354197,896.144217 C1230.61338,634.795739 1547.25987,907.858137 1860.42249,1005.26789 C2173.58512,1102.67765 2624.30494,967.426837 2688.98944,1293.148 C2753.67394,1618.86916 2177.92838,2298.39158 1778.51426,2240.88007 C1379.10015,2183.36857 1005.81251,2149.0516 909.724518,2425.81116 C813.636524,2702.57072 85.0875061,2347.10054 400.793178,1940.44215 C716.498849,1533.78377 412.095015,1157.49269 821.354197,896.144217 Z" id="Path-10_1_30" transform="translate(1508.000000, 1654.965372) rotate(9.775143) translate(-1508.000000, -1654.965372) "></path>
            <path d="M821.512116,897.017563 C1230.08115,635.969607 1546.19366,908.718014 1858.82819,1006.01576 C2171.46272,1103.3135 2621.42247,968.218217 2685.99789,1293.56484 C2750.57331,1618.91145 2175.79865,2297.6525 1777.05808,2240.20713 C1378.31752,2182.76175 1005.65937,2148.48425 909.733414,2424.92556 C813.807458,2701.36688 86.4870213,2346.30545 401.660305,1940.11467 C716.83359,1533.9239 412.943084,1158.06552 821.512116,897.017563 Z" id="Path-10_1_29" transform="translate(1507.000000, 1654.966159) rotate(9.128087) translate(-1507.000000, -1654.966159) "></path>
            <path d="M821.670034,897.89091 C1229.54892,637.143475 1545.12746,909.577891 1857.23389,1006.76363 C2169.34031,1103.94936 2618.54,969.009597 2683.00634,1293.98167 C2747.47268,1618.95375 2173.66892,2296.91342 1775.60191,2239.53418 C1377.53489,2182.15494 1005.50623,2147.9169 909.742311,2424.03997 C813.978391,2700.16304 87.8865365,2345.51036 402.527433,1939.7872 C717.16833,1534.06404 413.791154,1158.63835 821.670034,897.89091 Z" id="Path-10_1_28" transform="translate(1506.000000, 1654.966949) rotate(8.500395) translate(-1506.000000, -1654.966949) "></path>
            <path d="M821.827953,898.764257 C1229.01668,638.317342 1544.06125,910.437769 1855.63958,1007.51149 C2167.21791,1104.58522 2615.65753,969.800978 2680.01479,1294.39851 C2744.37205,1618.99605 2171.53919,2296.17435 1774.14573,2238.86124 C1376.75226,2181.54813 1005.35309,2147.34955 909.751207,2423.15438 C814.149324,2698.95921 89.2860516,2344.71528 403.394561,1939.45973 C717.503071,1534.20417 414.639223,1159.21117 821.827953,898.764257 Z" id="Path-10_1_27" transform="translate(1505.000000, 1654.967742) rotate(7.892465) translate(-1505.000000, -1654.967742) "></path>
            <path d="M821.985872,899.637605 C1228.48445,639.491208 1542.99505,911.297647 1854.04528,1008.25936 C2165.09551,1105.22108 2612.77506,970.592359 2677.02324,1294.81536 C2741.27142,1619.03835 2169.40947,2295.43529 1772.68955,2238.18831 C1375.96963,2180.94133 1005.19995,2146.7822 909.760103,2422.2688 C814.320258,2697.75539 90.6855668,2343.9202 404.261689,1939.13226 C717.837811,1534.34431 415.487292,1159.784 821.985872,899.637605 Z" id="Path-10_1_26" transform="translate(1504.000000, 1654.968537) rotate(7.304680) translate(-1504.000000, -1654.968537) "></path>
            <path d="M822.143791,900.510953 C1227.95222,640.665074 1541.92884,912.157525 1852.45097,1009.00723 C2162.9731,1105.85694 2609.89259,971.38374 2674.03169,1295.2322 C2738.17079,1619.08066 2167.27974,2294.69623 1771.23337,2237.51538 C1375.187,2180.33453 1005.04681,2146.21486 909.768999,2421.38322 C814.491191,2696.55157 92.085082,2343.12513 405.128817,1938.80479 C718.172552,1534.48445 416.335361,1160.35683 822.143791,900.510953 Z" id="Path-10_1_25" transform="translate(1503.000000, 1654.969336) rotate(6.737411) translate(-1503.000000, -1654.969336) "></path>
            <path d="M822.301709,901.384301 C1227.41999,641.83894 1540.86263,913.017404 1850.85667,1009.7551 C2160.8507,1106.4928 2607.01012,972.175123 2671.04014,1295.64904 C2735.07016,1619.12296 2165.15001,2293.95717 1769.77719,2236.84245 C1374.40436,2179.72773 1004.89367,2145.64753 909.777896,2420.49764 C814.662124,2695.34776 93.4845971,2342.33007 405.995945,1938.47733 C718.507292,1534.6246 417.18343,1160.92966 822.301709,901.384301 Z" id="Path-10_1_24" transform="translate(1502.000000, 1654.970137) rotate(6.191016) translate(-1502.000000, -1654.970137) "></path>
            <path d="M822.459628,902.257649 C1226.88776,643.012805 1539.79643,913.877283 1849.26236,1010.50297 C2158.7283,1107.12866 2604.12765,972.966506 2668.04859,1296.06589 C2731.96953,1619.16527 2163.02029,2293.21812 1768.32101,2236.16953 C1373.62173,2179.12094 1004.74053,2145.0802 909.786792,2419.61208 C814.833058,2694.14395 94.8841123,2341.53501 406.863073,1938.14988 C718.842033,1534.76475 418.031499,1161.50249 822.459628,902.257649 Z" id="Path-10_1_23" transform="translate(1501.000000, 1654.970940) rotate(5.665842) translate(-1501.000000, -1654.970940) "></path>
            <path d="M822.617547,903.130998 C1226.35553,644.18667 1538.73022,914.737163 1847.66806,1011.25084 C2156.60589,1107.76452 2601.24518,973.757889 2665.05704,1296.48274 C2728.8689,1619.20759 2160.89056,2292.47907 1766.86483,2235.49661 C1372.8391,2178.51415 1004.58739,2144.51287 909.795688,2418.72651 C815.003991,2692.94015 96.2836275,2340.73995 407.7302,1937.82242 C719.176773,1534.90489 418.879568,1162.07533 822.617547,903.130998 Z" id="Path-10_1_22" transform="translate(1500.000000, 1654.971747) rotate(5.162219) translate(-1500.000000, -1654.971747) "></path>
            <path d="M822.775465,904.004348 C1225.82329,645.360534 1537.66402,915.597043 1846.07375,1011.99872 C2154.48349,1108.40039 2598.3627,974.549273 2662.06548,1296.89959 C2725.76826,1619.2499 2158.76083,2291.74003 1765.40865,2234.8237 C1372.05647,2177.90737 1004.43424,2143.94555 909.804584,2417.84096 C815.174924,2691.73636 97.6831426,2339.9449 408.597328,1937.49497 C719.511514,1535.04505 419.727637,1162.64816 822.775465,904.004348 Z" id="Path-10_1_21" transform="translate(1499.000000, 1654.972556) rotate(4.680465) translate(-1499.000000, -1654.972556) "></path>
            <path d="M822.933384,904.877697 C1225.29106,646.534397 1536.59781,916.456923 1844.47945,1012.74659 C2152.36109,1109.03625 2595.48023,975.340658 2659.07393,1297.31644 C2722.66763,1619.29222 2156.6311,2291.00099 1763.95247,2234.15079 C1371.27384,2177.30059 1004.2811,2143.37823 909.813481,2416.9554 C815.345858,2690.53257 99.0826578,2339.14985 409.464456,1937.16753 C719.846255,1535.1852 420.575706,1163.221 822.933384,904.877697 Z" id="Path-10_1_20" transform="translate(1498.000000, 1654.973368) rotate(4.220885) translate(-1498.000000, -1654.973368) "></path>
            <path d="M823.091303,905.751047 C1224.75883,647.708261 1535.53161,917.316803 1842.88515,1013.49446 C2150.23869,1109.67212 2592.59776,976.132043 2656.08238,1297.73329 C2719.567,1619.33454 2154.50138,2290.26196 1762.49629,2233.47789 C1370.49121,2176.69382 1004.12796,2142.81092 909.822377,2416.06986 C815.516791,2689.32879 100.482173,2338.35481 410.331584,1936.84008 C720.180995,1535.32536 421.423776,1163.79383 823.091303,905.751047 Z" id="Path-10_1_19" transform="translate(1497.000000, 1654.974182) rotate(3.783769) translate(-1497.000000, -1654.974182) "></path>
            <path d="M823.249222,906.624398 C1224.2266,648.882123 1534.4654,918.176684 1841.29084,1014.24234 C2148.11628,1110.30799 2589.71529,976.923429 2653.09083,1298.15014 C2716.46637,1619.37686 2152.37165,2289.52293 1761.04011,2232.80499 C1369.70858,2176.08705 1003.97482,2142.24361 909.831273,2415.18431 C815.687724,2688.12502 101.881688,2337.55978 411.198712,1936.51264 C720.515736,1535.46551 422.271845,1164.36667 823.249222,906.624398 Z" id="Path-10_1_18" transform="translate(1496.000000, 1654.975000) rotate(3.369394) translate(-1496.000000, -1654.975000) "></path>
            <path d="M823.40714,907.497748 C1223.69437,650.055985 1533.3992,919.036566 1839.69654,1014.99021 C2145.99388,1110.94385 2586.83282,977.714815 2650.09928,1298.567 C2713.36574,1619.41919 2150.24192,2288.7839 1759.58393,2232.1321 C1368.92595,2175.48029 1003.82168,2141.67631 909.840169,2414.29878 C815.858658,2686.92125 103.281203,2336.76474 412.06584,1936.18521 C720.850476,1535.60568 423.119914,1164.93951 823.40714,907.497748 Z" id="Path-10_1_17" transform="translate(1495.000000, 1654.975820) rotate(2.978020) translate(-1495.000000, -1654.975820) "></path>
            <path d="M823.565059,908.371099 C1223.16214,651.229847 1532.33299,919.896448 1838.10223,1015.73809 C2143.87148,1111.57972 2583.95035,978.506202 2647.10773,1298.98386 C2710.26511,1619.46151 2148.11219,2288.04489 1758.12776,2231.45921 C1368.14332,2174.87353 1003.66854,2141.109 909.849066,2413.41325 C816.029591,2685.71749 104.680718,2335.96972 412.932968,1935.85778 C721.185217,1535.74584 423.967983,1165.51235 823.565059,908.371099 Z" id="Path-10_1_16" transform="translate(1494.000000, 1654.976644) rotate(2.609895) translate(-1494.000000, -1654.976644) "></path>
            <path d="M823.722978,909.244451 C1222.6299,652.403708 1531.26679,920.75633 1836.50793,1016.48596 C2141.74907,1112.21559 2581.06788,979.29759 2644.11618,1299.40072 C2707.16448,1619.50385 2145.98247,2287.30587 1756.67158,2230.78632 C1367.36069,2174.26677 1003.5154,2140.54171 909.857962,2412.52772 C816.200524,2684.51373 106.080234,2335.1747 413.800096,1935.53035 C721.519957,1535.88601 424.816052,1166.08519 823.722978,909.244451 Z" id="Path-10_1_15" transform="translate(1493.000000, 1654.977470) rotate(2.265253) translate(-1493.000000, -1654.977470) "></path>
            <path d="M823.880897,910.117803 C1222.09767,653.577569 1530.20058,921.616213 1834.91362,1017.23384 C2139.62667,1112.85147 2578.18541,980.088978 2641.12463,1299.81758 C2704.06385,1619.54618 2143.85274,2286.56686 1755.2154,2230.11344 C1366.57806,2173.66002 1003.36226,2139.97442 909.866858,2411.6422 C816.371458,2683.30998 107.479749,2334.37968 414.667223,1935.20293 C721.854698,1536.02617 425.664121,1166.65804 823.880897,910.117803 Z" id="Path-10_1_14" transform="translate(1492.000000, 1654.978299) rotate(1.944309) translate(-1492.000000, -1654.978299) "></path>
            <path d="M824.038815,910.991155 C1221.56544,654.751429 1529.13437,922.476096 1833.31932,1017.98172 C2137.50427,1113.48734 2575.30294,980.880367 2638.13308,1300.23444 C2700.96322,1619.58852 2141.72301,2285.82786 1753.75922,2229.44057 C1365.79542,2173.05328 1003.20912,2139.40713 909.875754,2410.75669 C816.542391,2682.10624 108.879264,2333.58467 415.534351,1934.87551 C722.189438,1536.16634 426.51219,1167.23088 824.038815,910.991155 Z" id="Path-10_1_13" transform="translate(1491.000000, 1654.979130) rotate(1.647267) translate(-1491.000000, -1654.979130) "></path>
            <path d="M824.196734,911.864507 C1221.03321,655.925289 1528.06817,923.335979 1831.72502,1018.7296 C2135.38186,1114.12321 2572.42047,981.671756 2635.14153,1300.65131 C2697.86259,1619.63086 2139.59328,2285.08886 1752.30304,2228.7677 C1365.01279,2172.44654 1003.05598,2138.83985 909.884651,2409.87118 C816.713324,2680.9025 110.278779,2332.78967 416.401479,1934.54809 C722.524179,1536.30652 427.360259,1167.80373 824.196734,911.864507 Z" id="Path-10_1_12" transform="translate(1490.000000, 1654.979965) rotate(1.374315) translate(-1490.000000, -1654.979965) "></path>
            <path d="M824.354653,912.73786 C1220.50098,657.099148 1527.00196,924.195863 1830.13071,1019.47747 C2133.25946,1114.75909 2569.538,982.463146 2632.14998,1301.06817 C2694.76196,1619.6732 2137.46356,2284.34987 1750.84686,2228.09484 C1364.23016,2171.8398 1002.90284,2138.27257 909.893547,2408.98567 C816.884258,2679.69877 111.678294,2331.99467 417.268607,1934.22068 C722.85892,1536.44669 428.208328,1168.37657 824.354653,912.73786 Z" id="Path-10_1_11" transform="translate(1489.000000, 1654.980803) rotate(1.125626) translate(-1489.000000, -1654.980803) "></path>
            <path d="M824.512571,913.611213 C1219.96875,658.273007 1525.93576,925.055747 1828.53641,1020.22535 C2131.13706,1115.39496 2566.65553,983.254537 2629.15843,1301.48504 C2691.66133,1619.71554 2135.33383,2283.61088 1749.39068,2227.42198 C1363.44753,2171.23307 1002.7497,2137.7053 909.902443,2408.10017 C817.055191,2678.49505 113.077809,2331.19967 418.135735,1933.89327 C723.19366,1536.58687 429.056398,1168.94942 824.512571,913.611213 Z" id="Path-10_1_10" transform="translate(1488.000000, 1654.981643) rotate(0.901355) translate(-1488.000000, -1654.981643) "></path>
            <path d="M824.67049,914.484567 C1219.43651,659.446865 1524.86955,925.915632 1826.9421,1020.97324 C2129.01465,1116.03084 2563.77306,984.045928 2626.16688,1301.90191 C2688.5607,1619.75789 2133.2041,2282.8719 1747.9345,2226.74912 C1362.6649,2170.62634 1002.59655,2137.13803 909.911339,2407.21468 C817.226125,2677.29133 114.477325,2330.40468 419.002863,1933.56587 C723.528401,1536.72705 429.904467,1169.52227 824.67049,914.484567 Z" id="Path-10_1_9" transform="translate(1487.000000, 1654.982487) rotate(0.701645) translate(-1487.000000, -1654.982487) "></path>
            <path d="M824.828409,915.357921 C1218.90428,660.620723 1523.80335,926.775517 1825.3478,1021.72112 C2126.89225,1116.66672 2560.89059,984.83732 2623.17533,1302.31878 C2685.46007,1619.80024 2131.07437,2282.13292 1746.47832,2226.07627 C1361.88227,2170.01962 1002.44341,2136.57077 909.920236,2406.32919 C817.397058,2676.08762 115.87684,2329.6097 419.869991,1933.23847 C723.863141,1536.86724 430.752536,1170.09512 824.828409,915.357921 Z" id="Path-10_1_8" transform="translate(1486.000000, 1654.983333) rotate(0.526622) translate(-1486.000000, -1654.983333) "></path>
            <path d="M824.986328,916.231275 C1218.37205,661.79458 1522.73714,927.635403 1823.75349,1022.469 C2124.76985,1117.3026 2558.00812,985.628712 2620.18378,1302.73565 C2682.35944,1619.84259 2128.94465,2281.39395 1745.02214,2225.40343 C1361.09964,2169.4129 1002.29027,2136.00351 909.929132,2405.44371 C817.567991,2674.88392 117.276355,2328.81472 420.737118,1932.91107 C724.197882,1537.00742 431.600605,1170.66797 824.986328,916.231275 Z" id="Path-10_1_7" transform="translate(1485.000000, 1654.984183) rotate(0.376396) translate(-1485.000000, -1654.984183) "></path>
            <path d="M825.144246,917.10463 C1217.83982,662.968436 1521.67094,928.495289 1822.15919,1023.21688 C2122.64744,1117.93848 2555.12565,986.420105 2617.19223,1303.15253 C2679.25881,1619.88495 2126.81492,2280.65498 1743.56596,2224.73059 C1360.31701,2168.80619 1002.13713,2135.43625 909.938028,2404.55824 C817.738925,2673.68022 118.67587,2328.01974 421.604246,1932.58368 C724.532622,1537.14761 432.448674,1171.24082 825.144246,917.10463 Z" id="Path-10_1_6" transform="translate(1484.000000, 1654.985035) rotate(0.251063) translate(-1484.000000, -1654.985035) "></path>
            <path d="M825.302165,917.977985 C1217.30759,664.142292 1520.60473,929.355175 1820.56488,1023.96477 C2120.52504,1118.57436 2552.24318,987.211499 2614.20068,1303.5694 C2676.15818,1619.92731 2124.68519,2279.91602 1742.10978,2224.05775 C1359.53438,2168.19948 1001.98399,2134.869 909.946925,2403.67277 C817.909858,2672.47653 120.075385,2327.22478 422.471374,1932.25629 C724.867363,1537.2878 433.296743,1171.81368 825.302165,917.977985 Z" id="Path-10_1_5" transform="translate(1483.000000, 1654.985891) rotate(0.150701) translate(-1483.000000, -1654.985891) "></path>
            <path d="M825.460084,918.851341 C1216.77536,665.316148 1519.53852,930.215062 1818.97058,1024.71265 C2118.40264,1119.21024 2549.36071,988.002894 2611.20913,1303.98628 C2673.05754,1619.96967 2122.55546,2279.17706 1740.6536,2223.38492 C1358.75175,2167.59278 1001.83085,2134.30176 909.955821,2402.7873 C818.080791,2671.27284 121.4749,2326.42981 423.338502,1931.92891 C725.202104,1537.428 434.144812,1172.38653 825.460084,918.851341 Z" id="Path-10_1_4" transform="translate(1482.000000, 1654.986749) rotate(0.075374) translate(-1482.000000, -1654.986749) "></path>
            <path d="M825.618003,919.724697 C1216.24312,666.490003 1518.47232,931.074949 1817.37628,1025.46054 C2116.28023,1119.84612 2546.47824,988.794289 2608.21758,1304.40316 C2669.95691,1620.01204 2120.42574,2278.43811 1739.19743,2222.7121 C1357.96911,2166.98608 1001.67771,2133.73452 909.964717,2401.90184 C818.251725,2670.06917 122.874416,2325.63486 424.20563,1931.60152 C725.536844,1537.56819 434.992881,1172.95939 825.618003,919.724697 Z" id="Path-10_1_3" transform="translate(1481.000000, 1654.987611) rotate(0.025130) translate(-1481.000000, -1654.987611) "></path>
            <path d="M825.775921,920.576143 C1215.71089,667.693935 1517.40611,931.910597 1815.78197,1026.1648 C2114.15783,1120.41901 2543.59577,989.549595 2605.22603,1304.71916 C2666.85628,1619.88873 2118.29601,2277.39832 1737.74125,2221.74987 C1357.18648,2166.10143 1001.52457,2132.89615 909.973613,2400.6902 C818.422658,2668.48425 124.273931,2324.52937 425.072758,1931.04451 C725.871585,1537.55964 435.84095,1173.45835 825.775921,920.576143 Z" id="Path-10_1_2"></path>
            <path d="M826.031476,921.416147 C1215.35632,668.913576 1516.57948,932.733584 1814.48847,1026.84629 C2112.39746,1120.959 2541.16346,990.286052 2602.69728,1304.98247 C2664.23111,1619.6789 2116.52916,2276.20141 1736.56985,2220.6365 C1356.61054,2165.0716 1001.50513,2131.91616 910.097425,2399.30819 C818.689719,2666.70022 125.627124,2323.2617 425.955292,1930.36755 C726.28346,1537.4734 436.706635,1173.91872 826.031476,921.416147 Z" id="Path-10_1_1"></path>
        </g>
    </g>
</svg>